STARTFONT 2.3
FONT -FontForge-Butcherman-Book-R-Normal--12-120-72-72-P-65-ISO10646-1
SIZE 12 72 72  4
FONTBOUNDINGBOX 18 25 -1 -9
COMMENT "Generated by fontforge, http://fontforge.sourceforge.net"
COMMENT "Copyright (c) 2011, Typomondo, with Reserved Font Name  "Butcherman"."
STARTPROPERTIES 41
FOUNDRY "FontForge"
FAMILY_NAME "Butcherman"
WEIGHT_NAME "Book"
SLANT "R"
SETWIDTH_NAME "Normal"
ADD_STYLE_NAME ""
PIXEL_SIZE 12
POINT_SIZE 120
RESOLUTION_X 72
RESOLUTION_Y 72
SPACING "P"
AVERAGE_WIDTH 65
CHARSET_REGISTRY "ISO10646"
CHARSET_ENCODING "1"
FONTNAME_REGISTRY ""
CHARSET_COLLECTIONS "ISO8859-2 ISO8859-9 ISO8859-4 ISO10646-1"
BITS_PER_PIXEL 4
FONT_NAME "Butcherman-Regular"
FACE_NAME "Butcherman Regular"
COPYRIGHT "Copyright (c) 2011, Typomondo, with Reserved Font Name  "Butcherman"."
FONT_VERSION "001.004"
FONT_ASCENT 10
FONT_DESCENT 2
UNDERLINE_POSITION -1
UNDERLINE_THICKNESS 1
X_HEIGHT 8
CAP_HEIGHT 8
DEFAULT_CHAR 3
RAW_ASCENT 799
RAW_DESCENT 200
NORM_SPACE 2
RELATIVE_WEIGHT 40
RELATIVE_SETWIDTH 50
SUPERSCRIPT_X 0
SUPERSCRIPT_Y 4
SUPERSCRIPT_SIZE 7
SUBSCRIPT_X 0
SUBSCRIPT_Y 0
SUBSCRIPT_SIZE 7
AVG_LOWERCASE_WIDTH 70
AVG_UPPERCASE_WIDTH 66
ENDPROPERTIES
CHARS 331
STARTCHAR NULL.dup1
ENCODING 0
SWIDTH 161 0
DWIDTH 2 0
BBX 1 1 0 0
BITMAP
00
ENDCHAR
STARTCHAR CR
ENCODING 13
SWIDTH 161 0
DWIDTH 2 0
BBX 1 1 0 0
BITMAP
00
ENDCHAR
STARTCHAR space
ENCODING 32
SWIDTH 161 0
DWIDTH 2 0
BBX 1 1 0 0
BITMAP
00
ENDCHAR
STARTCHAR exclam
ENCODING 33
SWIDTH 350 0
DWIDTH 4 0
BBX 4 15 0 0
BITMAP
5AA5
8FFA
3FF6
5FF4
3FF2
0EF1
0CE1
0BE0
0BD0
0350
0242
7FFA
3FFA
2FFA
1743
ENDCHAR
STARTCHAR quotedbl
ENCODING 34
SWIDTH 541 0
DWIDTH 7 0
BBX 6 5 0 4
BITMAP
5CB5CA
4FD3FB
1FA0E9
0D80C7
053052
ENDCHAR
STARTCHAR numbersign
ENCODING 35
SWIDTH 583 0
DWIDTH 7 0
BBX 7 12 0 -2
BITMAP
00030220
00490950
00860E20
0DEDDF80
0FFFFF60
06B3D720
0950E100
8EA9E600
BFEEE600
48083000
750C0000
00020000
ENDCHAR
STARTCHAR dollar
ENCODING 36
SWIDTH 534 0
DWIDTH 6 0
BBX 6 16 0 -4
BITMAP
001600
003A00
003A00
02AE91
1EFFFC
7FFFFE
8FFFFD
7FE5BA
3FFE80
039DF4
2CB7F5
0BFFD0
025A20
004800
004800
000100
ENDCHAR
STARTCHAR percent
ENCODING 37
SWIDTH 828 0
DWIDTH 10 0
BBX 10 11 0 -1
BITMAP
0000004000
187007A000
9FF60B5000
8CF80D3000
88C72D0AC2
6CE2781FF6
0550D30FE7
0003E03CC7
0004802DE2
0009400020
000A100000
ENDCHAR
STARTCHAR ampersand
ENCODING 38
SWIDTH 522 0
DWIDTH 6 0
BBX 6 7 0 1
BITMAP
007810
00CF10
49EF87
8FFFFB
38EF95
00CF10
005600
ENDCHAR
STARTCHAR quotesingle
ENCODING 39
SWIDTH 300 0
DWIDTH 4 0
BBX 3 5 0 4
BITMAP
4CB0
3FD0
1FB0
0DA0
0530
ENDCHAR
STARTCHAR parenleft
ENCODING 40
SWIDTH 372 0
DWIDTH 4 0
BBX 5 13 0 -2
BITMAP
000110
007E30
06FF20
1DFF00
4FFC00
6FD000
8F9000
8F8000
7F9000
3FD000
0CF900
03FD00
002400
ENDCHAR
STARTCHAR parenright
ENCODING 41
SWIDTH 338 0
DWIDTH 4 0
BBX 4 12 0 -2
BITMAP
9C40
8FE2
7FF7
7FF7
19F6
04F6
03F5
04F4
07F1
1AC0
AF30
6400
ENDCHAR
STARTCHAR asterisk
ENCODING 42
SWIDTH 513 0
DWIDTH 6 0
BBX 6 8 0 2
BITMAP
000230
0786A0
05ED60
69FFA6
6BEFB7
01EE50
05D7A0
002000
ENDCHAR
STARTCHAR plus
ENCODING 43
SWIDTH 458 0
DWIDTH 6 0
BBX 5 5 0 2
BITMAP
01D700
37FA50
7FFFE0
26FB50
01E800
ENDCHAR
STARTCHAR comma
ENCODING 44
SWIDTH 361 0
DWIDTH 4 0
BBX 4 7 0 -2
BITMAP
0100
5FFA
6FFB
7FFA
36CA
00A8
0094
ENDCHAR
STARTCHAR hyphen
ENCODING 45
SWIDTH 478 0
DWIDTH 6 0
BBX 5 3 0 3
BITMAP
3CBBB0
5FFFC0
267760
ENDCHAR
STARTCHAR period
ENCODING 46
SWIDTH 374 0
DWIDTH 5 0
BBX 4 5 0 0
BITMAP
0132
5FFC
3FFD
1FFD
0644
ENDCHAR
STARTCHAR slash
ENCODING 47
SWIDTH 291 0
DWIDTH 4 0
BBX 4 11 0 -1
BITMAP
0022
00A5
00E1
02D0
0790
0D40
2E00
5A00
7500
C100
B000
ENDCHAR
STARTCHAR zero
ENCODING 48
SWIDTH 528 0
DWIDTH 6 0
BBX 6 10 0 -1
BITMAP
05CC70
2FFFF6
6FFFFA
5FFFFB
5F89FB
4F67FA
3F77F7
1FBBF2
0AFFC0
004A20
ENDCHAR
STARTCHAR one
ENCODING 49
SWIDTH 366 0
DWIDTH 4 0
BBX 4 10 0 -1
BITMAP
04A8
DFFB
2BFD
09FB
08F8
07F8
05F6
04F6
03C5
0001
ENDCHAR
STARTCHAR two
ENCODING 50
SWIDTH 575 0
DWIDTH 7 0
BBX 7 11 0 -2
BITMAP
05DD8000
3FFFF900
5FFFFD00
5FFFFD00
4FB7FB00
143CF800
001EE200
03CFE860
4FFFEF80
5C872A30
00000100
ENDCHAR
STARTCHAR three
ENCODING 51
SWIDTH 517 0
DWIDTH 6 0
BBX 6 10 0 -1
BITMAP
07CC30
7FFFE2
7FFFF8
6FFFF9
5E9AF8
104EF4
004BF6
05A5F7
04FEF2
008750
ENDCHAR
STARTCHAR four
ENCODING 52
SWIDTH 466 0
DWIDTH 6 0
BBX 6 12 0 -3
BITMAP
2CDC91
0DFC00
0FF800
2FF300
1FF100
2FCCB0
3F9C90
6FEEC3
8FFFF3
113BA2
000940
000430
ENDCHAR
STARTCHAR five
ENCODING 53
SWIDTH 583 0
DWIDTH 7 0
BBX 7 10 0 -1
BITMAP
5DEDCB70
5FFFFF80
5FFFFF60
5FFFFF40
5FB56710
3FDAB200
078AF500
04A4F600
03FEF100
00775000
ENDCHAR
STARTCHAR six
ENCODING 54
SWIDTH 582 0
DWIDTH 7 0
BBX 7 10 0 -1
BITMAP
05BB9200
6FFFFE20
8FFFFF80
7FFFFF60
5FD5FF20
2FC38B00
0CFCEB00
0BF1BF00
07FDFE00
01ACB800
ENDCHAR
STARTCHAR seven
ENCODING 55
SWIDTH 624 0
DWIDTH 7 0
BBX 8 11 0 -2
BITMAP
7ABCEED4
9FFFFFE1
6FFFFFC0
4FFFFF60
2765CF30
0001EC00
0006F600
000BD000
002F7000
007F2000
00010000
ENDCHAR
STARTCHAR eight
ENCODING 56
SWIDTH 459 0
DWIDTH 6 0
BBX 5 10 0 -1
BITMAP
2BDC70
8FFFF0
7FFFF0
5FEFC0
2F6DA0
0DDE50
0BDF30
0C4E40
0ADF30
027500
ENDCHAR
STARTCHAR nine
ENCODING 57
SWIDTH 584 0
DWIDTH 7 0
BBX 7 11 0 -2
BITMAP
029CB200
0CFFFF20
6FFFFF50
7FFFFF70
6FF2FF70
2EFEFF50
0387FE10
1CE3FA00
0BFFF200
01464000
00020000
ENDCHAR
STARTCHAR colon
ENCODING 58
SWIDTH 386 0
DWIDTH 5 0
BBX 4 11 0 0
BITMAP
0021
5FFD
2FFD
1FFE
0755
0000
0242
5FFC
3FFD
1FFC
0743
ENDCHAR
STARTCHAR semicolon
ENCODING 59
SWIDTH 375 0
DWIDTH 5 0
BBX 4 13 0 -2
BITMAP
0131
6FFC
3FFB
3FFC
1754
0000
0100
4FEB
3FFC
5FFB
26BB
00A9
0096
ENDCHAR
STARTCHAR less
ENCODING 60
SWIDTH 459 0
DWIDTH 6 0
BBX 6 8 0 0
BITMAP
015550
03FF90
0CFD00
8FF300
4FF500
08FD10
00AFD1
000120
ENDCHAR
STARTCHAR equal
ENCODING 61
SWIDTH 485 0
DWIDTH 6 0
BBX 5 5 0 3
BITMAP
144340
3FFFF0
022220
3DDDD0
177760
ENDCHAR
STARTCHAR greater
ENCODING 62
SWIDTH 432 0
DWIDTH 5 0
BBX 5 7 0 1
BITMAP
366200
3FF700
06FE20
00CFB0
01EF80
0AFB00
7FE200
ENDCHAR
STARTCHAR question
ENCODING 63
SWIDTH 577 0
DWIDTH 7 0
BBX 6 12 0 -2
BITMAP
005520
0CFFE4
5FFFFD
5FFFFF
2FC8FE
0009F9
000EE2
001E60
000100
00CF50
009F50
003310
ENDCHAR
STARTCHAR at
ENCODING 64
SWIDTH 930 0
DWIDTH 11 0
BBX 11 14 0 -3
BITMAP
000034200000
001BFFF90000
00BB534CB000
0795EFE5D900
0D1DFFFA6F30
4B0DFFF83F90
8A0AF5F61FB0
7A0696F50EC0
7C08E5F90C90
5F18E9FE8D50
1E74CDB7D900
06E300000000
009EA9B50000
000499720000
ENDCHAR
STARTCHAR A
ENCODING 65
SWIDTH 494 0
DWIDTH 6 0
BBX 6 12 0 -3
BITMAP
49A983
0CFFD0
0AFF90
0BFF80
0AEF60
0BBE60
0BAD60
0CFF60
0ACE30
084B10
021500
000100
ENDCHAR
STARTCHAR B
ENCODING 66
SWIDTH 517 0
DWIDTH 6 0
BBX 6 10 0 -1
BITMAP
5ACDC4
1EFFFC
0BFFFB
0AFEF8
09F3F6
09FCF2
08FCE0
06F3F1
06FDE0
012540
ENDCHAR
STARTCHAR C
ENCODING 67
SWIDTH 504 0
DWIDTH 6 0
BBX 6 11 0 -2
BITMAP
04CD91
5FFFF9
9FFFFB
9FFFFB
7FC6FA
5FB143
2FA241
0EC8F3
0AFFC0
006A20
001200
ENDCHAR
STARTCHAR D
ENCODING 68
SWIDTH 522 0
DWIDTH 6 0
BBX 6 11 0 -2
BITMAP
379BA1
5FFFFC
1FFFFF
0DFFFE
0BF4CC
0AF2A9
08F2C6
05F8F5
05CEF2
042B30
010300
ENDCHAR
STARTCHAR E
ENCODING 69
SWIDTH 570 0
DWIDTH 7 0
BBX 7 10 0 -1
BITMAP
5ACCB920
1EFFFE00
0DFFFB00
0CFFF700
0BF33200
0AFFA000
08FA7000
06F87000
05BFB000
02243000
ENDCHAR
STARTCHAR F
ENCODING 70
SWIDTH 559 0
DWIDTH 7 0
BBX 7 10 0 -1
BITMAP
5BCAB910
1DFFFC00
09FFF900
08FFF700
05FA6400
04FFF200
03FC9100
03F90000
04F90000
03530000
ENDCHAR
STARTCHAR G
ENCODING 71
SWIDTH 499 0
DWIDTH 6 0
BBX 6 11 0 -2
BITMAP
05BB40
6FFFF5
9FFFFB
7FFFFA
5F8AF8
3F6484
1F8DF6
0EB6F6
0AFFF3
027970
001000
ENDCHAR
STARTCHAR H
ENCODING 72
SWIDTH 726 0
DWIDTH 9 0
BBX 9 12 0 -3
BITMAP
36AA2CBA20
1FF90EFD00
0DF91FF700
0AF81FF300
08F82FE000
05FFFFB000
03FC9FA000
02FA6F6000
01FA7F4000
0141392000
0000100000
0000100000
ENDCHAR
STARTCHAR I
ENCODING 73
SWIDTH 401 0
DWIDTH 5 0
BBX 5 10 0 -1
BITMAP
8DDD40
1EFE00
09FE00
0AFC00
0AF900
08F900
06F700
04F700
02D600
004200
ENDCHAR
STARTCHAR J
ENCODING 74
SWIDTH 455 0
DWIDTH 5 0
BBX 6 10 -1 -1
BITMAP
001BB9
000BFA
000AF5
000BF3
000CF1
000BE0
2C5CC0
1F9EA0
0BDE50
001310
ENDCHAR
STARTCHAR K
ENCODING 75
SWIDTH 580 0
DWIDTH 7 0
BBX 7 10 0 -1
BITMAP
6CA3A940
1EF5FA00
09FAF100
06FFC000
05FFD000
02FFE000
00FFE000
00E7F300
00D5D600
00223200
ENDCHAR
STARTCHAR L
ENCODING 76
SWIDTH 416 0
DWIDTH 5 0
BBX 6 10 0 -1
BITMAP
7CCA10
3FF500
0FF500
0FF300
0CF300
0BF400
09F300
08FC83
05FEF2
004580
ENDCHAR
STARTCHAR M
ENCODING 77
SWIDTH 740 0
DWIDTH 9 0
BBX 9 10 0 -1
BITMAP
5BDD3EEA30
1EFF6FFB00
0DFFDFF800
0AFFFFF600
09FFFFF600
07FDFDF600
03FAF9F500
01F9E8F200
00D687C100
0030002000
ENDCHAR
STARTCHAR N
ENCODING 78
SWIDTH 610 0
DWIDTH 7 0
BBX 7 11 0 -2
BITMAP
5AB5BA60
1FF9AF50
0EFEAF20
0CFFEF00
0BFFFD00
08FFFB00
05FCFA00
04F7F900
03F4F700
0293A400
01222000
ENDCHAR
STARTCHAR O
ENCODING 79
SWIDTH 504 0
DWIDTH 6 0
BBX 6 10 0 -1
BITMAP
04BB60
4FFFF7
9FFFFB
8FFFFA
6F99FB
4F76FA
2F87F6
0ECAF3
0AFFC0
006830
ENDCHAR
STARTCHAR P
ENCODING 80
SWIDTH 545 0
DWIDTH 7 0
BBX 7 10 0 -1
BITMAP
5ACCC700
0DFFFF20
0AFFFF20
09FEEF00
06F97E00
03FA9C00
02FFF700
00FA1000
00EA0000
00350000
ENDCHAR
STARTCHAR Q
ENCODING 81
SWIDTH 520 0
DWIDTH 6 0
BBX 6 11 0 -2
BITMAP
029C70
3FFFF8
9FFFFD
AFFDFE
8FF2FD
3FE0FC
1FF1FB
0AFBF8
02DFF9
0027BB
000012
ENDCHAR
STARTCHAR R
ENCODING 82
SWIDTH 599 0
DWIDTH 7 0
BBX 7 10 0 -1
BITMAP
59CDC810
2EFFFFB0
08FFFFE0
06FEDFD0
05FA3FC0
02FECF80
00EFFE20
00DB9F10
00BC8F20
00352820
ENDCHAR
STARTCHAR S
ENCODING 83
SWIDTH 504 0
DWIDTH 6 0
BBX 6 10 0 -1
BITMAP
039C80
2FFFFA
8FFFFB
AFFFFA
9FC6B9
4FFD70
049EF4
3DA9F4
0DFFC0
025530
ENDCHAR
STARTCHAR T
ENCODING 84
SWIDTH 622 0
DWIDTH 7 0
BBX 7 11 0 -2
BITMAP
3ABCC970
2FFFFFA0
0DFFFF80
0BFFFF60
067FD530
000FE000
001FC000
000FB000
000DC000
000EA000
00011000
ENDCHAR
STARTCHAR U
ENCODING 85
SWIDTH 637 0
DWIDTH 8 0
BBX 8 10 0 -1
BITMAP
5CD56A71
1FF59FC0
0EF69F80
0BF6AF50
0AF5BF10
09F4CF00
08F6DD00
05FCFB00
01DAC500
00213000
ENDCHAR
STARTCHAR V
ENCODING 86
SWIDTH 570 0
DWIDTH 7 0
BBX 7 10 0 -1
BITMAP
6CB0CC70
0EE1FF10
0BE3FB00
0AF7F700
0AF9F300
07FCF000
06FFB000
03FF8000
01FF4000
009C1000
ENDCHAR
STARTCHAR W
ENCODING 87
SWIDTH 777 0
DWIDTH 9 0
BBX 10 10 0 0
BITMAP
0000100000
26A3C57B71
4EF6F8CF60
05FBFDFB00
02FEFFF400
00AFFFF000
005FFFD000
002FCFA000
000D8F5000
00076E1000
ENDCHAR
STARTCHAR X
ENCODING 88
SWIDTH 587 0
DWIDTH 7 0
BBX 7 10 0 -1
BITMAP
4AC3A950
09F8FD30
01EFF300
009FE000
008FB000
006F8000
006F8000
009EB000
00C9F100
00724200
ENDCHAR
STARTCHAR Y
ENCODING 89
SWIDTH 688 0
DWIDTH 8 0
BBX 9 10 0 -1
BITMAP
4BC70B8510
04FF4FF810
006FEF8000
000DFF1000
0007FE0000
0002FD0000
0000EC0000
0000CB0000
0000BA0000
0000420000
ENDCHAR
STARTCHAR Z
ENCODING 90
SWIDTH 695 0
DWIDTH 8 0
BBX 9 10 0 -1
BITMAP
4ADDDC8510
4FFFFFFB00
0CFFFFF300
08FFFFB000
0557FC2000
000DE20000
003F600000
009FA60000
00EEF70000
0011310000
ENDCHAR
STARTCHAR bracketleft
ENCODING 91
SWIDTH 410 0
DWIDTH 5 0
BBX 5 12 0 -1
BITMAP
154410
2FFF70
2FFF80
3FA110
3F9000
4F9000
4F9000
5F9000
4F9000
2FB540
0EEF60
021300
ENDCHAR
STARTCHAR backslash
ENCODING 92
SWIDTH 292 0
DWIDTH 4 0
BBX 4 11 0 -1
BITMAP
4000
C300
8800
5A00
1E10
0B60
06A0
02D0
00B0
0085
0047
ENDCHAR
STARTCHAR bracketright
ENCODING 93
SWIDTH 407 0
DWIDTH 5 0
BBX 5 12 0 -1
BITMAP
145400
AFFF00
AFFF00
12CF00
00AF10
009F20
009F20
009F30
009F20
45BF10
BFFF20
021300
ENDCHAR
STARTCHAR asciicircum
ENCODING 94
SWIDTH 523 0
DWIDTH 6 0
BBX 6 5 0 8
BITMAP
02BB40
08FFC0
1EC9F5
6F41EA
140031
ENDCHAR
STARTCHAR underscore
ENCODING 95
SWIDTH 452 0
DWIDTH 5 0
BBX 5 3 0 -1
BITMAP
387760
6FFFC0
244330
ENDCHAR
STARTCHAR grave
ENCODING 96
SWIDTH 444 0
DWIDTH 5 0
BBX 5 3 0 9
BITMAP
079000
2DFB10
015960
ENDCHAR
STARTCHAR a
ENCODING 97
SWIDTH 479 0
DWIDTH 6 0
BBX 6 10 0 -1
BITMAP
6CEEE7
0DFFE0
0AFFD0
0BFFC0
0AFEB0
0BDCC0
0CABD0
0CEEB0
0CCCA0
0B6670
ENDCHAR
STARTCHAR b
ENCODING 98
SWIDTH 610 0
DWIDTH 7 0
BBX 7 10 0 -1
BITMAP
38ABCB40
2FFFFFC0
08FFFFF0
06FFFFE0
04FB4FA0
02FEAF40
01FFFD10
00DB5F40
00CDAF10
0067A900
ENDCHAR
STARTCHAR c
ENCODING 99
SWIDTH 534 0
DWIDTH 6 0
BBX 7 10 0 -1
BITMAP
04BEB200
4FFFFE10
9FFFFF10
9FFFFF10
6FE4FF00
3FE06700
1FE04000
0CF5F500
07FFE200
01564000
ENDCHAR
STARTCHAR d
ENCODING 100
SWIDTH 573 0
DWIDTH 7 0
BBX 7 11 0 -2
BITMAP
49BCA400
4FFFFF40
0EFFFFA0
0AFFFFB0
06FCAF80
03F94F40
01F84E00
00E87B00
00EEF800
00A9E300
00100000
ENDCHAR
STARTCHAR e
ENCODING 101
SWIDTH 632 0
DWIDTH 8 0
BBX 8 10 0 -1
BITMAP
49BCCB81
3FFFFFA0
0CFFFF40
0AFFFF30
08FB3700
05FDA400
03FFE600
01FB3200
00DFF800
00344400
ENDCHAR
STARTCHAR f
ENCODING 102
SWIDTH 559 0
DWIDTH 7 0
BBX 7 10 0 -1
BITMAP
5BCBB910
1DFFFC00
08FFF900
08FFF700
06F96400
05FFF000
04FC9100
04F80000
05F90000
03640000
ENDCHAR
STARTCHAR g
ENCODING 103
SWIDTH 546 0
DWIDTH 7 0
BBX 7 10 0 -1
BITMAP
06BB9100
6FFFFD00
9FFFFF40
8FFFFF40
6FC5FF10
3FB18A00
0EC8DA00
0BF4DD00
08FDFC00
01ACB500
ENDCHAR
STARTCHAR h
ENCODING 104
SWIDTH 730 0
DWIDTH 9 0
BBX 9 10 0 -1
BITMAP
38BB1DDC30
0EFA0CFD00
0CFA0FF700
0AFA0FF400
07FA2FF100
04FFFFC000
02FC8FB000
01FB5F7000
00FA6F6000
0030273000
ENDCHAR
STARTCHAR i
ENCODING 105
SWIDTH 412 0
DWIDTH 5 0
BBX 5 10 0 -1
BITMAP
6CDC40
1DFF10
08FD00
09FA00
08F800
07F900
04F600
03F600
02E500
002100
ENDCHAR
STARTCHAR j
ENCODING 106
SWIDTH 458 0
DWIDTH 6 0
BBX 7 10 -1 -1
BITMAP
005DB810
001FFC00
000CF700
000CF700
000CF600
000AF400
2C7AF300
0ECCF100
08FFC000
00142000
ENDCHAR
STARTCHAR k
ENCODING 107
SWIDTH 636 0
DWIDTH 8 0
BBX 8 10 0 -1
BITMAP
59B86DB1
1EF9BE30
08FAD700
03FBF500
02FEE000
01FFC000
00CFF200
00BAC800
00AA7D00
00221400
ENDCHAR
STARTCHAR l
ENCODING 108
SWIDTH 438 0
DWIDTH 5 0
BBX 6 10 0 -1
BITMAP
4BCD60
0EFB00
0CFA00
0BF900
07F900
05F800
04F700
02FD95
00FEF4
005181
ENDCHAR
STARTCHAR m
ENCODING 109
SWIDTH 770 0
DWIDTH 9 0
BBX 9 10 0 -1
BITMAP
169C2CEC60
4FFF5FFE10
0DFFCFFA00
0CFFFFF700
0AFFFFF500
08FEFEF200
06FBECE000
04FABDA000
03C67D6000
0140011000
ENDCHAR
STARTCHAR n
ENCODING 110
SWIDTH 664 0
DWIDTH 8 0
BBX 8 10 0 -1
BITMAP
7CD94BB7
2FFE3FF2
0FFF8FC0
0EFFEFA0
0CFFFF80
0AFFFF50
07FBFF30
06F6FF00
05F3FB00
0271B500
ENDCHAR
STARTCHAR o
ENCODING 111
SWIDTH 545 0
DWIDTH 7 0
BBX 7 10 0 -1
BITMAP
05BCA200
4FFFFD10
9FFFFF30
8FFFFF40
6FC5FF30
4FA3FF10
1FA4FC00
0DE8F700
08EFF300
00257000
ENDCHAR
STARTCHAR p
ENCODING 112
SWIDTH 557 0
DWIDTH 7 0
BBX 7 10 0 -1
BITMAP
5BCBB700
1DFFFF40
0AFFFF50
09FEFF30
08F88F10
06F9AD00
03FFF800
02FA2100
01F90000
00640000
ENDCHAR
STARTCHAR q
ENCODING 113
SWIDTH 562 0
DWIDTH 7 0
BBX 7 11 0 -2
BITMAP
03ADB300
4FFFFF20
9FFFFF50
AFFBFF60
7FF2BF50
3FF18F50
1FF3AF30
0AFBFE10
01CFFE30
00166E30
00000200
ENDCHAR
STARTCHAR r
ENCODING 114
SWIDTH 616 0
DWIDTH 7 0
BBX 8 10 0 -1
BITMAP
49BCB820
2EFFFFE1
08FFFFF1
06FFEFE0
04FB3FB0
03FEBF90
01FFFE30
01FBBC00
00FBAD00
00834B00
ENDCHAR
STARTCHAR s
ENCODING 115
SWIDTH 481 0
DWIDTH 6 0
BBX 6 10 0 -1
BITMAP
04BC60
3FFFF6
8FFFF6
AFFFF5
9FA9E4
5FFB31
06CFA0
1A7BC0
0DFF70
048610
ENDCHAR
STARTCHAR t
ENCODING 116
SWIDTH 683 0
DWIDTH 8 0
BBX 8 11 0 -2
BITMAP
49CDDDB6
3FFFFFF4
0CFFFFF1
0AFFFFF0
056CF760
0009F600
0009F600
0007F500
0005F500
0005F400
00002100
ENDCHAR
STARTCHAR u
ENCODING 117
SWIDTH 708 0
DWIDTH 9 0
BBX 9 9 0 0
BITMAP
4ACA098510
0EFB0FFD20
0BFD0EF900
08FE0EF400
06FD0FF100
04FD2FE000
02FF3FC000
00CFBF9000
006DAD4000
ENDCHAR
STARTCHAR v
ENCODING 118
SWIDTH 644 0
DWIDTH 8 0
BBX 8 10 0 -1
BITMAP
3BC44CB3
0CF68FB0
07F99F50
04FAAF20
01FCBE00
00CDDB00
008FF800
003FF400
000CF100
00066000
ENDCHAR
STARTCHAR w
ENCODING 119
SWIDTH 704 0
DWIDTH 8 0
BBX 9 9 0 0
BITMAP
4892B29610
2DF6F5FB00
07FBFCF400
04FFFFD000
00CFFFA000
008FFF8000
004FCF7000
000E9F5000
00084E3000
ENDCHAR
STARTCHAR x
ENCODING 120
SWIDTH 599 0
DWIDTH 7 0
BBX 7 10 0 -1
BITMAP
4AD4AA60
08F9FD30
01EFF400
009FF000
007FC000
005F9000
006F9000
008EC000
00B8F200
00623200
ENDCHAR
STARTCHAR y
ENCODING 121
SWIDTH 604 0
DWIDTH 7 0
BBX 7 10 0 -1
BITMAP
3BC18840
06F7DF40
00CEF600
007FF100
003FE000
000ED000
000CC000
000DC000
000DA000
00073000
ENDCHAR
STARTCHAR z
ENCODING 122
SWIDTH 622 0
DWIDTH 7 0
BBX 7 10 0 -1
BITMAP
4BDDDB80
3FFFFFB0
0BFFFF50
07FFFF20
0479F600
000DB000
002F4000
007E8400
00BFF600
00324300
ENDCHAR
STARTCHAR braceleft
ENCODING 123
SWIDTH 372 0
DWIDTH 4 0
BBX 5 13 0 -2
BITMAP
000110
007E30
06FF20
1DFF00
4FFC00
6FD000
8F9000
8F8000
7F9000
3FD000
0CF900
03FD00
002400
ENDCHAR
STARTCHAR bar
ENCODING 124
SWIDTH 208 0
DWIDTH 3 0
BBX 2 12 0 -2
BITMAP
16
4B
4B
2A
39
4A
4A
4A
29
39
49
01
ENDCHAR
STARTCHAR braceright
ENCODING 125
SWIDTH 338 0
DWIDTH 4 0
BBX 4 12 0 -2
BITMAP
9C40
8FE2
7FF7
7FF7
19F6
04F6
03F5
04F4
07F1
1AC0
AF30
6400
ENDCHAR
STARTCHAR asciitilde
ENCODING 126
SWIDTH 535 0
DWIDTH 6 0
BBX 6 4 0 6
BITMAP
010030
5F8CF8
1DFCD9
013010
ENDCHAR
STARTCHAR exclamdown
ENCODING 161
SWIDTH 347 0
DWIDTH 4 0
BBX 4 15 0 0
BITMAP
2C96
2FFB
3FFA
5CE9
0000
06A0
0AF0
0AE0
0CF2
0EF1
4FF4
4FF5
4FF7
9FFC
1652
ENDCHAR
STARTCHAR cent
ENCODING 162
SWIDTH 552 0
DWIDTH 7 0
BBX 7 18 0 -5
BITMAP
00030000
00080000
00090000
00090000
04BEC200
4FFFFE10
9FFFFF20
8FFFFF20
5FF3FF10
2FF05700
0FF04000
0CF5F600
07FFF200
015A4000
00060000
00080000
00080000
00030000
ENDCHAR
STARTCHAR sterling
ENCODING 163
SWIDTH 589 0
DWIDTH 7 0
BBX 7 10 0 -1
BITMAP
05BB9200
4FFFFE20
7FFFFF90
6FFFFF90
4FE3FF40
3FD37A10
4CF70000
0AFCA800
0CFEF700
02549200
ENDCHAR
STARTCHAR yen
ENCODING 165
SWIDTH 692 0
DWIDTH 8 0
BBX 10 11 -1 0
BITMAP
1334103100
06EF73FFB2
003FEAFD10
0006FFF200
0157FFF960
0277CFC530
02BBDFEBA0
00127F9210
00004F9000
00001E8000
0000010000
ENDCHAR
STARTCHAR brokenbar
ENCODING 166
SWIDTH 201 0
DWIDTH 2 0
BBX 2 12 0 -2
BITMAP
35
5A
5A
49
13
00
00
3A
38
3A
3A
11
ENDCHAR
STARTCHAR section
ENCODING 167
SWIDTH 477 0
DWIDTH 6 0
BBX 6 12 0 -3
BITMAP
03CE91
0DFFF6
1FFFF2
0EEBE0
0CFA40
5FCEB0
AF49B0
8FCE50
19EF20
3B7F20
0DFC00
021100
ENDCHAR
STARTCHAR dieresis
ENCODING 168
SWIDTH 633 0
DWIDTH 8 0
BBX 7 4 0 9
BITMAP
16514740
3FF2CF90
3FF2CFA0
15614430
ENDCHAR
STARTCHAR copyright
ENCODING 169
SWIDTH 783 0
DWIDTH 9 0
BBX 9 11 0 -1
BITMAP
0001320000
007B9A9100
0986DC3910
3C2FFFA270
764FFFB090
843F9EA0A0
851F6330A0
580E683190
1C0ADF3940
05A3768A00
004BCC7000
ENDCHAR
STARTCHAR guillemotleft
ENCODING 171
SWIDTH 759 0
DWIDTH 9 0
BBX 9 8 0 0
BITMAP
0034305420
02EF47FE30
0BFA2EF600
6FE28FC000
5FE15FD000
08F80BF600
00BF71DF50
0002201220
ENDCHAR
STARTCHAR uni00AD
ENCODING 173
SWIDTH 446 0
DWIDTH 5 0
BBX 5 2 0 3
BITMAP
5EDDA0
267650
ENDCHAR
STARTCHAR registered
ENCODING 174
SWIDTH 780 0
DWIDTH 9 0
BBX 9 11 0 -1
BITMAP
0000200000
008C766100
0AEBCA2800
3C5FFFA360
871FEFA0A0
840E7C80D0
630BFF40A0
3807DB5060
0B44D7A340
02D8449900
0018CB6000
ENDCHAR
STARTCHAR macron
ENCODING 175
SWIDTH 446 0
DWIDTH 5 0
BBX 5 2 0 3
BITMAP
5EDDA0
267650
ENDCHAR
STARTCHAR acute
ENCODING 180
SWIDTH 439 0
DWIDTH 5 0
BBX 5 3 0 9
BITMAP
006B00
08FF50
3A6100
ENDCHAR
STARTCHAR mu
ENCODING 181
SWIDTH 679 0
DWIDTH 8 0
BBX 9 10 0 -1
BITMAP
6AC71A8400
3FF83FFB10
0EFA2FF500
0CFB3FF100
09FA4FC000
08F95FB000
06FA7F8000
01FDCF5000
00ABCC1000
0000100000
ENDCHAR
STARTCHAR paragraph
ENCODING 182
SWIDTH 591 0
DWIDTH 7 0
BBX 7 10 0 -1
BITMAP
19BBDB80
9FFFEF50
9FFF4E10
6FFF4F00
2FFF3F00
07BC3D00
00092900
00082800
00092800
00041400
ENDCHAR
STARTCHAR periodcentered
ENCODING 183
SWIDTH 388 0
DWIDTH 5 0
BBX 4 5 0 2
BITMAP
1465
3FFD
1FFE
1FFD
0411
ENDCHAR
STARTCHAR cedilla
ENCODING 184
SWIDTH 270 0
DWIDTH 3 0
BBX 3 4 0 -4
BITMAP
1D00
5B50
16B0
4CA0
ENDCHAR
STARTCHAR guillemotright
ENCODING 187
SWIDTH 767 0
DWIDTH 9 0
BBX 9 8 0 0
BITMAP
3661232000
3FF62EE200
06FE15FD10
00CF90BF90
01EF60CFB0
0BFA06FF30
7FE22EF600
0000133000
ENDCHAR
STARTCHAR Agrave
ENCODING 192
SWIDTH 494 0
DWIDTH 6 0
BBX 7 15 -1 -3
BITMAP
09700000
3EF91000
01594000
049A9830
00CFFD00
00AFF900
00BFF800
00AEF600
00BBE600
00BAD600
00CFF600
00ACE300
0084B100
00215000
00001000
ENDCHAR
STARTCHAR Aacute
ENCODING 193
SWIDTH 494 0
DWIDTH 6 0
BBX 7 15 0 -3
BITMAP
00002C20
0003DFB0
00098300
49A98300
0CFFD000
0AFF9000
0BFF8000
0AEF6000
0BBE6000
0BAD6000
0CFF6000
0ACE3000
084B1000
02150000
00010000
ENDCHAR
STARTCHAR Acircumflex
ENCODING 194
SWIDTH 494 0
DWIDTH 6 0
BBX 6 17 0 -3
BITMAP
037700
0AFF60
2FADE1
8B03E6
410031
49A983
0CFFD0
0AFF90
0BFF80
0AEF60
0BBE60
0BAD60
0CFF60
0ACE30
084B10
021500
000100
ENDCHAR
STARTCHAR Atilde
ENCODING 195
SWIDTH 494 0
DWIDTH 6 0
BBX 6 16 0 -3
BITMAP
160580
9FDFF8
1BC6A2
000000
49A983
0CFFD0
0AFF90
0BFF80
0AEF60
0BBE60
0BAD60
0CFF60
0ACE30
084B10
021500
000100
ENDCHAR
STARTCHAR Adieresis
ENCODING 196
SWIDTH 494 0
DWIDTH 6 0
BBX 6 16 0 -3
BITMAP
552376
EF68FD
EF68FE
462243
49A983
0CFFD0
0AFF90
0BFF80
0AEF60
0BBE60
0BAD60
0CFF60
0ACE30
084B10
021500
000100
ENDCHAR
STARTCHAR Aring
ENCODING 197
SWIDTH 494 0
DWIDTH 6 0
BBX 6 16 0 -3
BITMAP
02BC20
087790
05BA40
015600
49A983
0CFFD0
0AFF90
0BFF80
0AEF60
0BBE60
0BAD60
0CFF60
0ACE30
084B10
021500
000100
ENDCHAR
STARTCHAR AE
ENCODING 198
SWIDTH 733 0
DWIDTH 9 0
BBX 9 12 0 -3
BITMAP
49ABCCB920
0CFFFFFE10
0BFFFFF900
0AFFFFF600
0AEFF23200
0BAEFFA000
0BADFA6000
0CFFF86000
0BBFBFB000
084B454000
0214312000
0001000000
ENDCHAR
STARTCHAR Ccedilla
ENCODING 199
SWIDTH 504 0
DWIDTH 6 0
BBX 6 14 0 -5
BITMAP
04CD91
5FFFF9
9FFFFB
9FFFFB
7FC6FA
5FB143
2FA241
0EC8F3
0AFFC0
006A20
0016A0
0008A4
000298
0006D7
ENDCHAR
STARTCHAR Egrave
ENCODING 200
SWIDTH 570 0
DWIDTH 7 0
BBX 7 13 0 -1
BITMAP
2C200000
AFE40000
03790000
5ACCB920
1EFFFE00
0DFFFB00
0CFFF700
0BF33200
0AFFA000
08FA7000
06F87000
05BFB000
02243000
ENDCHAR
STARTCHAR Eacute
ENCODING 201
SWIDTH 570 0
DWIDTH 7 0
BBX 8 13 0 -1
BITMAP
00000790
00019FE4
0004A510
5ACCB920
1EFFFE00
0DFFFB00
0CFFF700
0BF33200
0AFFA000
08FA7000
06F87000
05BFB000
02243000
ENDCHAR
STARTCHAR Ecircumflex
ENCODING 202
SWIDTH 570 0
DWIDTH 7 0
BBX 7 15 0 -1
BITMAP
00674000
03FFD000
09E9F600
1E40AE00
14000400
5ACCB920
1EFFFE00
0DFFFB00
0CFFF700
0BF33200
0AFFA000
08FA7000
06F87000
05BFB000
02243000
ENDCHAR
STARTCHAR Edieresis
ENCODING 203
SWIDTH 570 0
DWIDTH 7 0
BBX 7 14 0 -1
BITMAP
26406830
6FE1FF60
6FE1FF60
25505410
5ACCB920
1EFFFE00
0DFFFB00
0CFFF700
0BF33200
0AFFA000
08FA7000
06F87000
05BFB000
02243000
ENDCHAR
STARTCHAR Igrave
ENCODING 204
SWIDTH 401 0
DWIDTH 5 0
BBX 6 14 -1 -1
BITMAP
3C1000
BFD300
038900
000000
08DDD4
01EFE0
009FE0
00AFC0
00AF90
008F90
006F70
004F70
002D60
000420
ENDCHAR
STARTCHAR Iacute
ENCODING 205
SWIDTH 401 0
DWIDTH 5 0
BBX 7 14 0 -1
BITMAP
00008800
001AFE30
00595100
00000000
8DDD4000
1EFE0000
09FE0000
0AFC0000
0AF90000
08F90000
06F70000
04F70000
02D60000
00420000
ENDCHAR
STARTCHAR Icircumflex
ENCODING 206
SWIDTH 401 0
DWIDTH 5 0
BBX 6 15 -1 -1
BITMAP
007730
04FFC0
0BEAF5
2E30BC
140014
08DDD4
01EFE0
009FE0
00AFC0
00AF90
008F90
006F70
004F70
002D60
000420
ENDCHAR
STARTCHAR Idieresis
ENCODING 207
SWIDTH 401 0
DWIDTH 5 0
BBX 7 14 -1 -1
BITMAP
25416820
8FC2FF40
8FC2FF50
25415410
08DDD400
01EFE000
009FE000
00AFC000
00AF9000
008F9000
006F7000
004F7000
002D6000
00042000
ENDCHAR
STARTCHAR Eth
ENCODING 208
SWIDTH 530 0
DWIDTH 6 0
BBX 7 11 0 -2
BITMAP
069BD500
0EFFFF40
08FFFF80
05FFFF80
04FB6F60
5BFD7F20
01F95D00
00DCBB00
00CCF700
00647000
00120000
ENDCHAR
STARTCHAR Ntilde
ENCODING 209
SWIDTH 610 0
DWIDTH 7 0
BBX 7 15 0 -2
BITMAP
05219400
2FDEFE10
05D87800
00000000
5AB5BA60
1FF9AF50
0EFEAF20
0CFFEF00
0BFFFD00
08FFFB00
05FCFA00
04F7F900
03F4F700
0293A400
01222000
ENDCHAR
STARTCHAR Ograve
ENCODING 210
SWIDTH 504 0
DWIDTH 6 0
BBX 7 13 -1 -1
BITMAP
09700000
3EF91000
015A4000
004BB600
04FFFF70
09FFFFB0
08FFFFA0
06F99FB0
04F76FA0
02F87F60
00ECAF30
00AFFC00
00068300
ENDCHAR
STARTCHAR Oacute
ENCODING 211
SWIDTH 504 0
DWIDTH 6 0
BBX 7 13 0 -1
BITMAP
00002C20
0004EFA0
000A7300
04BB6000
4FFFF700
9FFFFB00
8FFFFA00
6F99FB00
4F76FA00
2F87F600
0ECAF300
0AFFC000
00683000
ENDCHAR
STARTCHAR Ocircumflex
ENCODING 212
SWIDTH 504 0
DWIDTH 6 0
BBX 6 15 0 -1
BITMAP
037700
0BFF60
2FAED0
9B03E6
410041
04BB60
4FFFF7
9FFFFB
8FFFFA
6F99FB
4F76FA
2F87F6
0ECAF3
0AFFC0
006830
ENDCHAR
STARTCHAR Otilde
ENCODING 213
SWIDTH 504 0
DWIDTH 6 0
BBX 6 14 0 -1
BITMAP
340760
DEDFF4
3CA691
000000
04BB60
4FFFF7
9FFFFB
8FFFFA
6F99FB
4F76FA
2F87F6
0ECAF3
0AFFC0
006830
ENDCHAR
STARTCHAR Odieresis
ENCODING 214
SWIDTH 504 0
DWIDTH 6 0
BBX 6 14 0 -1
BITMAP
552376
EF68FD
EF68FE
462243
04BB60
4FFFF7
9FFFFB
8FFFFA
6F99FB
4F76FA
2F87F6
0ECAF3
0AFFC0
006830
ENDCHAR
STARTCHAR multiply
ENCODING 215
SWIDTH 359 0
DWIDTH 4 0
BBX 5 5 0 2
BITMAP
173600
9FEE10
1EF800
9FEF10
183600
ENDCHAR
STARTCHAR Oslash
ENCODING 216
SWIDTH 658 0
DWIDTH 8 0
BBX 9 10 -1 -1
BITMAP
001ACA3000
01DFFFE360
04FFFFF900
03FFFFF400
01FE3FF400
00ED8EF300
00BE2EE000
00BF6FB000
066FFF6000
1205481000
ENDCHAR
STARTCHAR Ugrave
ENCODING 217
SWIDTH 637 0
DWIDTH 8 0
BBX 8 14 0 -1
BITMAP
0A600000
4FF80000
016A3000
00000000
5CD56A71
1FF59FC0
0EF69F80
0BF6AF50
0AF5BF10
09F4CF00
08F6DD00
05FCFB00
01DAC500
00213000
ENDCHAR
STARTCHAR Uacute
ENCODING 218
SWIDTH 637 0
DWIDTH 8 0
BBX 8 14 0 -1
BITMAP
000002D1
00004EFA
0000A730
00000000
5CD56A71
1FF59FC0
0EF69F80
0BF6AF50
0AF5BF10
09F4CF00
08F6DD00
05FCFB00
01DAC500
00213000
ENDCHAR
STARTCHAR Ucircumflex
ENCODING 219
SWIDTH 637 0
DWIDTH 8 0
BBX 8 15 0 -1
BITMAP
00377000
00BFF500
03FAED00
09B04F50
04100410
5CD56A71
1FF59FC0
0EF69F80
0BF6AF50
0AF5BF10
09F4CF00
08F6DD00
05FCFB00
01DAC500
00213000
ENDCHAR
STARTCHAR Udieresis
ENCODING 220
SWIDTH 637 0
DWIDTH 8 0
BBX 8 14 0 -1
BITMAP
05513760
0FF59FC0
0FF59FD0
05623430
5CD56A71
1FF59FC0
0EF69F80
0BF6AF50
0AF5BF10
09F4CF00
08F6DD00
05FCFB00
01DAC500
00213000
ENDCHAR
STARTCHAR Yacute
ENCODING 221
SWIDTH 688 0
DWIDTH 8 0
BBX 9 14 0 -1
BITMAP
0000009600
00001BFD20
0000694100
0000000000
4BC70B8510
04FF4FF810
006FEF8000
000DFF1000
0007FE0000
0002FD0000
0000EC0000
0000CB0000
0000BA0000
0000420000
ENDCHAR
STARTCHAR Thorn
ENCODING 222
SWIDTH 521 0
DWIDTH 6 0
BBX 6 13 0 -2
BITMAP
9DD600
AFF300
8FFDC5
6FFFFC
5FFFFD
4FFDFC
1FF3CA
0EF6C8
0BFFF3
09F410
09F400
067300
012000
ENDCHAR
STARTCHAR germandbls
ENCODING 223
SWIDTH 546 0
DWIDTH 7 0
BBX 7 10 0 -1
BITMAP
07ABA600
5FFFFF20
7FFFFF30
8FFFFF20
6FD2FB00
4FC7F600
2FCBE200
0FC3F500
0DC8F300
0668A000
ENDCHAR
STARTCHAR agrave
ENCODING 224
SWIDTH 479 0
DWIDTH 6 0
BBX 7 14 -1 -1
BITMAP
07900000
2EFB1000
01596000
00000000
06CEEE70
00DFFE00
00AFFD00
00BFFC00
00AFEB00
00BDCC00
00CABD00
00CEEB00
00CCCA00
00B66700
ENDCHAR
STARTCHAR aacute
ENCODING 225
SWIDTH 479 0
DWIDTH 6 0
BBX 8 14 0 -1
BITMAP
00001B40
0002CFC1
00088400
00000000
6CEEE700
0DFFE000
0AFFD000
0BFFC000
0AFEB000
0BDCC000
0CABD000
0CEEB000
0CCCA000
0B667000
ENDCHAR
STARTCHAR acircumflex
ENCODING 226
SWIDTH 479 0
DWIDTH 6 0
BBX 6 15 0 -1
BITMAP
017710
08FF90
1ECCF2
6D12D9
320032
6CEEE7
0DFFE0
0AFFD0
0BFFC0
0AFEB0
0BDCC0
0CABD0
0CEEB0
0CCCA0
0B6670
ENDCHAR
STARTCHAR atilde
ENCODING 227
SWIDTH 479 0
DWIDTH 6 0
BBX 6 14 0 -1
BITMAP
250670
AFDFF7
2CB5A2
000000
6CEEE7
0DFFE0
0AFFD0
0BFFC0
0AFEB0
0BDCC0
0CABD0
0CEEB0
0CCCA0
0B6670
ENDCHAR
STARTCHAR adieresis
ENCODING 228
SWIDTH 479 0
DWIDTH 6 0
BBX 7 14 0 -1
BITMAP
45326700
CF86FF00
CF86FF10
46324400
6CEEE700
0DFFE000
0AFFD000
0BFFC000
0AFEB000
0BDCC000
0CABD000
0CEEB000
0CCCA000
0B667000
ENDCHAR
STARTCHAR aring
ENCODING 229
SWIDTH 479 0
DWIDTH 6 0
BBX 6 14 0 -1
BITMAP
02BC30
0796B0
04C960
004600
6CEEE7
0DFFE0
0AFFD0
0BFFC0
0AFEB0
0BDCC0
0CABD0
0CEEB0
0CCCA0
0B6670
ENDCHAR
STARTCHAR ae
ENCODING 230
SWIDTH 755 0
DWIDTH 9 0
BBX 9 10 0 -1
BITMAP
6CEEEEC940
0CFFFFFF20
09FFFFFC00
0AFFFFFA00
09FEF65400
0AEBFC9000
0BCAFEC000
0BEEF73000
0BDBFFF100
0B75756000
ENDCHAR
STARTCHAR ccedilla
ENCODING 231
SWIDTH 534 0
DWIDTH 6 0
BBX 7 14 0 -5
BITMAP
04BEB200
4FFFFE10
9FFFFF10
9FFFFF10
6FE4FF00
3FE06700
1FE04000
0CF5F500
07FFE200
01574000
00095000
000D7100
0003C300
000AE300
ENDCHAR
STARTCHAR egrave
ENCODING 232
SWIDTH 632 0
DWIDTH 8 0
BBX 8 14 0 -1
BITMAP
0C400000
6FF70000
026A2000
00000000
49BCCB81
3FFFFFA0
0CFFFF40
0AFFFF30
08FB3700
05FDA400
03FFE600
01FB3200
00DFF800
00344400
ENDCHAR
STARTCHAR eacute
ENCODING 233
SWIDTH 632 0
DWIDTH 8 0
BBX 8 14 0 -1
BITMAP
000003D0
00006FF7
0000B720
00000000
49BCCB81
3FFFFFA0
0CFFFF40
0AFFFF30
08FB3700
05FDA400
03FFE600
01FB3200
00DFF800
00344400
ENDCHAR
STARTCHAR ecircumflex
ENCODING 234
SWIDTH 632 0
DWIDTH 8 0
BBX 8 15 0 -1
BITMAP
00476000
00DFF300
05F9FB00
0C905F30
05000400
49BCCB81
3FFFFFA0
0CFFFF40
0AFFFF30
08FB3700
05FDA400
03FFE600
01FB3200
00DFF800
00344400
ENDCHAR
STARTCHAR edieresis
ENCODING 235
SWIDTH 632 0
DWIDTH 8 0
BBX 8 14 0 -1
BITMAP
06514750
2FF3BFA0
2FF3BFB0
05613430
49BCCB81
3FFFFFA0
0CFFFF40
0AFFFF30
08FB3700
05FDA400
03FFE600
01FB3200
00DFF800
00344400
ENDCHAR
STARTCHAR igrave
ENCODING 236
SWIDTH 411 0
DWIDTH 5 0
BBX 6 14 -1 -1
BITMAP
2C2000
AFE400
037900
000000
06CDC4
01DFF1
008FD0
009FA0
008F80
007F90
004F60
003F60
002E50
000210
ENDCHAR
STARTCHAR iacute
ENCODING 237
SWIDTH 411 0
DWIDTH 5 0
BBX 7 14 0 -1
BITMAP
00007900
0019FE30
004A5100
00000000
6CDC4000
1DFF1000
08FD0000
09FA0000
08F80000
07F90000
04F60000
03F60000
02E50000
00210000
ENDCHAR
STARTCHAR icircumflex
ENCODING 238
SWIDTH 411 0
DWIDTH 5 0
BBX 6 15 0 -1
BITMAP
047600
0DFF30
5F9FB0
C905F3
500040
6CDC40
1DFF10
08FD00
09FA00
08F800
07F900
04F600
03F600
02E500
002100
ENDCHAR
STARTCHAR idieresis
ENCODING 239
SWIDTH 411 0
DWIDTH 5 0
BBX 7 14 -1 -1
BITMAP
26406820
7FD1FF50
7FD1FF60
25505410
06CDC400
01DFF100
008FD000
009FA000
008F8000
007F9000
004F6000
003F6000
002E5000
00021000
ENDCHAR
STARTCHAR eth
ENCODING 240
SWIDTH 530 0
DWIDTH 6 0
BBX 7 11 0 -2
BITMAP
069BD500
0EFFFF40
08FFFF80
05FFFF80
04FB6F60
5BFD7F20
01F95D00
00DCBB00
00CCF700
00647000
00120000
ENDCHAR
STARTCHAR ntilde
ENCODING 241
SWIDTH 664 0
DWIDTH 8 0
BBX 8 14 0 -1
BITMAP
02506700
0BFDFF60
02CB5A20
00000000
7CD94BB7
2FFE3FF2
0FFF8FC0
0EFFEFA0
0CFFFF80
0AFFFF50
07FBFF30
06F6FF00
05F3FB00
0271B500
ENDCHAR
STARTCHAR ograve
ENCODING 242
SWIDTH 545 0
DWIDTH 7 0
BBX 8 14 -1 -1
BITMAP
06A00000
1DFC2000
00487000
00000000
005BCA20
04FFFFD1
09FFFFF3
08FFFFF4
06FC5FF3
04FA3FF1
01FA4FC0
00DE8F70
008EFF30
00025700
ENDCHAR
STARTCHAR oacute
ENCODING 243
SWIDTH 545 0
DWIDTH 7 0
BBX 8 14 0 -1
BITMAP
00000A60
0002BFD2
00079400
00000000
05BCA200
4FFFFD10
9FFFFF30
8FFFFF40
6FC5FF30
4FA3FF10
1FA4FC00
0DE8F700
08EFF300
00257000
ENDCHAR
STARTCHAR ocircumflex
ENCODING 244
SWIDTH 545 0
DWIDTH 7 0
BBX 7 15 0 -1
BITMAP
01772000
07FFA000
0DDBF300
5E21DA00
23002300
05BCA200
4FFFFD10
9FFFFF30
8FFFFF40
6FC5FF30
4FA3FF10
1FA4FC00
0DE8F700
08EFF300
00257000
ENDCHAR
STARTCHAR otilde
ENCODING 245
SWIDTH 545 0
DWIDTH 7 0
BBX 7 14 0 -1
BITMAP
16058000
9FDFF800
1BC6A300
00000000
05BCA200
4FFFFD10
9FFFFF30
8FFFFF40
6FC5FF30
4FA3FF10
1FA4FC00
0DE8F700
08EFF300
00257000
ENDCHAR
STARTCHAR odieresis
ENCODING 246
SWIDTH 545 0
DWIDTH 7 0
BBX 7 14 0 -1
BITMAP
35326710
AFA4FF20
AFA4FF30
36315400
05BCA200
4FFFFD10
9FFFFF30
8FFFFF40
6FC5FF30
4FA3FF10
1FA4FC00
0DE8F700
08EFF300
00257000
ENDCHAR
STARTCHAR oslash
ENCODING 248
SWIDTH 676 0
DWIDTH 8 0
BBX 8 10 0 -1
BITMAP
04BCA203
2EFFFD62
7FFFFF40
5FFFFF30
3FD6FF30
1FD8FF00
0DB3FB00
1CE8F700
66EFF300
00257000
ENDCHAR
STARTCHAR ugrave
ENCODING 249
SWIDTH 708 0
DWIDTH 9 0
BBX 9 13 0 0
BITMAP
04B1000000
1CFD300000
0048800000
0000000000
4ACA098510
0EFB0FFD20
0BFD0EF900
08FE0EF400
06FD0FF100
04FD2FE000
02FF3FC000
00CFBF9000
006DAD4000
ENDCHAR
STARTCHAR uacute
ENCODING 250
SWIDTH 708 0
DWIDTH 9 0
BBX 9 13 0 0
BITMAP
0000009700
00001BFE20
0000695100
0000000000
4ACA098510
0EFB0FFD20
0BFD0EF900
08FE0EF400
06FD0FF100
04FD2FE000
02FF3FC000
00CFBF9000
006DAD4000
ENDCHAR
STARTCHAR ucircumflex
ENCODING 251
SWIDTH 708 0
DWIDTH 9 0
BBX 9 14 0 0
BITMAP
0007730000
005FFC0000
00BDAF4000
03E30CC000
0230014000
4ACA098510
0EFB0FFD20
0BFD0EF900
08FE0EF400
06FD0FF100
04FD2FE000
02FF3FC000
00CFBF9000
006DAD4000
ENDCHAR
STARTCHAR udieresis
ENCODING 252
SWIDTH 708 0
DWIDTH 9 0
BBX 9 13 0 0
BITMAP
0354168200
08FC3FF300
09FC3FF400
0354154100
4ACA098510
0EFB0FFD20
0BFD0EF900
08FE0EF400
06FD0FF100
04FD2FE000
02FF3FC000
00CFBF9000
006DAD4000
ENDCHAR
STARTCHAR yacute
ENCODING 253
SWIDTH 604 0
DWIDTH 7 0
BBX 8 14 0 -1
BITMAP
000004C0
00007FF6
0001B620
00000000
3BC18840
06F7DF40
00CEF600
007FF100
003FE000
000ED000
000CC000
000DC000
000DA000
00073000
ENDCHAR
STARTCHAR thorn
ENCODING 254
SWIDTH 498 0
DWIDTH 6 0
BBX 6 13 0 -2
BITMAP
9DD300
AFF100
8FFCB2
6FFFF8
5FFFF9
4FFDF8
1FF1F7
0EF4F5
0BFFE1
09F410
09F400
067300
012000
ENDCHAR
STARTCHAR ydieresis
ENCODING 255
SWIDTH 604 0
DWIDTH 7 0
BBX 7 14 0 -1
BITMAP
05523770
0DF78FE0
0DF78FF0
04622440
3BC18840
06F7DF40
00CEF600
007FF100
003FE000
000ED000
000CC000
000DC000
000DA000
00073000
ENDCHAR
STARTCHAR Amacron
ENCODING 256
SWIDTH 494 0
DWIDTH 6 0
BBX 6 14 0 -3
BITMAP
2EDDD0
167760
49A983
0CFFD0
0AFF90
0BFF80
0AEF60
0BBE60
0BAD60
0CFF60
0ACE30
084B10
021500
000100
ENDCHAR
STARTCHAR amacron
ENCODING 257
SWIDTH 479 0
DWIDTH 6 0
BBX 6 12 0 -1
BITMAP
0EEDE1
067770
6CEEE7
0DFFE0
0AFFD0
0BFFC0
0AFEB0
0BDCC0
0CABD0
0CEEB0
0CCCA0
0B6670
ENDCHAR
STARTCHAR Abreve
ENCODING 258
SWIDTH 494 0
DWIDTH 6 0
BBX 6 17 0 -3
BITMAP
065032
09D2DA
04DFF4
002480
000000
49A983
0CFFD0
0AFF90
0BFF80
0AEF60
0BBE60
0BAD60
0CFF60
0ACE30
084B10
021500
000100
ENDCHAR
STARTCHAR abreve
ENCODING 259
SWIDTH 479 0
DWIDTH 6 0
BBX 6 15 0 -1
BITMAP
065032
09D2DA
04DFF4
002480
000000
6CEEE7
0DFFE0
0AFFD0
0BFFC0
0AFEB0
0BDCC0
0CABD0
0CEEB0
0CCCA0
0B6670
ENDCHAR
STARTCHAR Aogonek
ENCODING 260
SWIDTH 494 0
DWIDTH 6 0
BBX 6 14 0 -5
BITMAP
49A983
0CFFD0
0AFF90
0BFF80
0AEF60
0BBE60
0BAD60
0CFF60
0ACE30
085E10
025E00
006D00
005FB5
001BF9
ENDCHAR
STARTCHAR aogonek
ENCODING 261
SWIDTH 479 0
DWIDTH 6 0
BBX 7 14 0 -5
BITMAP
6CEEE700
0DFFE000
0AFFD000
0BFFC000
0AFEB000
0BDCC000
0CABD000
0CEEB000
0CCCA000
0B699000
000B7000
000BB310
0006FF30
00002410
ENDCHAR
STARTCHAR Cacute
ENCODING 262
SWIDTH 504 0
DWIDTH 6 0
BBX 7 14 0 -2
BITMAP
00007900
0019FE40
004A5100
04CD9100
5FFFF900
9FFFFB00
9FFFFB00
7FC6FA00
5FB14300
2FA24100
0EC8F300
0AFFC000
006A2000
00120000
ENDCHAR
STARTCHAR cacute
ENCODING 263
SWIDTH 534 0
DWIDTH 6 0
BBX 7 14 0 -1
BITMAP
00004C00
0007FF60
001B6200
00000000
04BEB200
4FFFFE10
9FFFFF10
9FFFFF10
6FE4FF00
3FE06700
1FE04000
0CF5F500
07FFE200
01564000
ENDCHAR
STARTCHAR Ccircumflex
ENCODING 264
SWIDTH 504 0
DWIDTH 6 0
BBX 6 16 0 -2
BITMAP
007730
05FFC0
0BDAF4
3E30CC
230014
04CD91
5FFFF9
9FFFFB
9FFFFB
7FC6FA
5FB143
2FA241
0EC8F3
0AFFC0
006A20
001200
ENDCHAR
STARTCHAR ccircumflex
ENCODING 265
SWIDTH 534 0
DWIDTH 6 0
BBX 7 15 0 -1
BITMAP
00576000
01EFF200
06F9FA00
0D707F20
05000500
04BEB200
4FFFFE10
9FFFFF10
9FFFFF10
6FE4FF00
3FE06700
1FE04000
0CF5F500
07FFE200
01564000
ENDCHAR
STARTCHAR Cdotaccent
ENCODING 266
SWIDTH 504 0
DWIDTH 6 0
BBX 6 16 0 -2
BITMAP
024640
05FFB0
04FFC0
03FFB0
013110
04CD91
5FFFF9
9FFFFB
9FFFFB
7FC6FA
5FB143
2FA241
0EC8F3
0AFFC0
006A20
001200
ENDCHAR
STARTCHAR cdotaccent
ENCODING 267
SWIDTH 534 0
DWIDTH 6 0
BBX 7 15 0 -1
BITMAP
01465000
01FFF000
00FFF000
00EFF000
00321000
04BEB200
4FFFFE10
9FFFFF10
9FFFFF10
6FE4FF00
3FE06700
1FE04000
0CF5F500
07FFE200
01564000
ENDCHAR
STARTCHAR Ccaron
ENCODING 268
SWIDTH 504 0
DWIDTH 6 0
BBX 6 16 0 -2
BITMAP
380063
5F63F9
0DDCF2
07FF90
017720
04CD91
5FFFF9
9FFFFB
9FFFFB
7FC6FA
5FB143
2FA241
0EC8F3
0AFFC0
006A20
001200
ENDCHAR
STARTCHAR ccaron
ENCODING 269
SWIDTH 534 0
DWIDTH 6 0
BBX 7 15 0 -1
BITMAP
08202700
0EC0BE10
07FBF800
01EFE100
00565000
04BEB200
4FFFFE10
9FFFFF10
9FFFFF10
6FE4FF00
3FE06700
1FE04000
0CF5F500
07FFE200
01564000
ENDCHAR
STARTCHAR Dcaron
ENCODING 270
SWIDTH 522 0
DWIDTH 6 0
BBX 7 16 0 -2
BITMAP
07401800
0CD19F30
05FBFA00
00DFF300
00466000
379BA100
5FFFFC00
1FFFFF00
0DFFFE00
0BF4CC00
0AF2A900
08F2C600
05F8F500
05CEF200
042B3000
01030000
ENDCHAR
STARTCHAR dcaron
ENCODING 271
SWIDTH 522 0
DWIDTH 6 0
BBX 7 16 0 -2
BITMAP
07401800
0CD19F30
05FBFA00
00DFF300
00466000
379BA100
5FFFFC00
1FFFFF00
0DFFFE00
0BF4CC00
0AF2A900
08F2C600
05F8F500
05CEF200
042B3000
01030000
ENDCHAR
STARTCHAR Eth.dup2
ENCODING 272
SWIDTH 530 0
DWIDTH 6 0
BBX 7 11 0 -2
BITMAP
069BD500
0EFFFF40
08FFFF80
05FFFF80
04FB6F60
5BFD7F20
01F95D00
00DCBB00
00CCF700
00647000
00120000
ENDCHAR
STARTCHAR Emacron
ENCODING 274
SWIDTH 570 0
DWIDTH 7 0
BBX 7 12 0 -1
BITMAP
09EDD600
03777300
5ACCB920
1EFFFE00
0DFFFB00
0CFFF700
0BF33200
0AFFA000
08FA7000
06F87000
05BFB000
02243000
ENDCHAR
STARTCHAR emacron
ENCODING 275
SWIDTH 632 0
DWIDTH 8 0
BBX 8 12 0 -1
BITMAP
05EDDA00
02676500
49BCCB81
3FFFFFA0
0CFFFF40
0AFFFF30
08FB3700
05FDA400
03FFE600
01FB3200
00DFF800
00344400
ENDCHAR
STARTCHAR Ebreve
ENCODING 276
SWIDTH 570 0
DWIDTH 7 0
BBX 7 15 0 -1
BITMAP
03811310
02F67F20
00BFFB00
00027400
00000000
5ACCB920
1EFFFE00
0DFFFB00
0CFFF700
0BF33200
0AFFA000
08FA7000
06F87000
05BFB000
02243000
ENDCHAR
STARTCHAR ebreve
ENCODING 277
SWIDTH 632 0
DWIDTH 8 0
BBX 8 15 0 -1
BITMAP
00650320
008D2DA0
004DFF50
00024800
00000000
49BCCB81
3FFFFFA0
0CFFFF40
0AFFFF30
08FB3700
05FDA400
03FFE600
01FB3200
00DFF800
00344400
ENDCHAR
STARTCHAR Edotaccent
ENCODING 278
SWIDTH 570 0
DWIDTH 7 0
BBX 7 15 0 -1
BITMAP
01465000
03FFD000
01FFE000
00FFE000
00311000
5ACCB920
1EFFFE00
0DFFFB00
0CFFF700
0BF33200
0AFFA000
08FA7000
06F87000
05BFB000
02243000
ENDCHAR
STARTCHAR edotaccent
ENCODING 279
SWIDTH 632 0
DWIDTH 8 0
BBX 8 15 0 -1
BITMAP
00456100
00DFF300
00CFF400
00BFF300
00321000
49BCCB81
3FFFFFA0
0CFFFF40
0AFFFF30
08FB3700
05FDA400
03FFE600
01FB3200
00DFF800
00344400
ENDCHAR
STARTCHAR Eogonek
ENCODING 280
SWIDTH 513 0
DWIDTH 6 0
BBX 7 13 0 -4
BITMAP
5ACCB920
1EFFFE00
0DFFFB00
0CFFF700
0BF33200
0AFFA000
08FA7000
06F87000
05EFC000
021D7000
000F3000
000DD910
0004CD00
ENDCHAR
STARTCHAR eogonek
ENCODING 281
SWIDTH 632 0
DWIDTH 8 0
BBX 8 13 0 -4
BITMAP
49BCCB81
3FFFFFA0
0CFFFF40
0AFFFF30
08FB3700
05FDA400
03FFE600
01FB3200
00DFF700
0036E100
0005D000
0004FA60
00008D90
ENDCHAR
STARTCHAR Ecaron
ENCODING 282
SWIDTH 570 0
DWIDTH 7 0
BBX 7 15 0 -1
BITMAP
07401800
0CD19F30
05FBFA00
00DFF300
00466000
5ACCB920
1EFFFE00
0DFFFB00
0CFFF700
0BF33200
0AFFA000
08FA7000
06F87000
05BFB000
02243000
ENDCHAR
STARTCHAR ecaron
ENCODING 283
SWIDTH 632 0
DWIDTH 8 0
BBX 8 15 0 -1
BITMAP
02800540
03F81EB0
00BEBF40
005FFB00
00077300
49BCCB81
3FFFFFA0
0CFFFF40
0AFFFF30
08FB3700
05FDA400
03FFE600
01FB3200
00DFF800
00344400
ENDCHAR
STARTCHAR Gcircumflex
ENCODING 284
SWIDTH 499 0
DWIDTH 6 0
BBX 6 16 0 -2
BITMAP
027710
0AFF70
1FBDE1
8C13E7
410031
05BB40
6FFFF5
9FFFFB
7FFFFA
5F8AF8
3F6484
1F8DF6
0EB6F6
0AFFF3
027970
001000
ENDCHAR
STARTCHAR gcircumflex
ENCODING 285
SWIDTH 546 0
DWIDTH 7 0
BBX 7 15 0 -1
BITMAP
01772000
06FFA000
0DDBF300
4E21CA00
23002300
06BB9100
6FFFFD00
9FFFFF40
8FFFFF40
6FC5FF10
3FB18A00
0EC8DA00
0BF4DD00
08FDFC00
01ACB500
ENDCHAR
STARTCHAR Gbreve
ENCODING 286
SWIDTH 499 0
DWIDTH 6 0
BBX 6 16 0 -2
BITMAP
183041
0D94F5
08EFE1
002650
000000
05BB40
6FFFF5
9FFFFB
7FFFFA
5F8AF8
3F6484
1F8DF6
0EB6F6
0AFFF3
027970
001000
ENDCHAR
STARTCHAR gbreve
ENCODING 287
SWIDTH 546 0
DWIDTH 7 0
BBX 7 15 0 -1
BITMAP
06503200
09C2D900
05DFF400
00248000
00000000
06BB9100
6FFFFD00
9FFFFF40
8FFFFF40
6FC5FF10
3FB18A00
0EC8DA00
0BF4DD00
08FDFC00
01ACB500
ENDCHAR
STARTCHAR Gdotaccent
ENCODING 288
SWIDTH 499 0
DWIDTH 6 0
BBX 6 16 0 -2
BITMAP
035620
09FF70
08FF70
07FF70
023110
05BB40
6FFFF5
9FFFFB
7FFFFA
5F8AF8
3F6484
1F8DF6
0EB6F6
0AFFF3
027970
001000
ENDCHAR
STARTCHAR gdotaccent
ENCODING 289
SWIDTH 546 0
DWIDTH 7 0
BBX 7 15 0 -1
BITMAP
02464000
06FFA000
04FFB000
03FFB000
01311000
06BB9100
6FFFFD00
9FFFFF40
8FFFFF40
6FC5FF10
3FB18A00
0EC8DA00
0BF4DD00
08FDFC00
01ACB500
ENDCHAR
STARTCHAR Gcommaaccent
ENCODING 290
SWIDTH 499 0
DWIDTH 6 0
BBX 6 17 0 -8
BITMAP
05BB40
6FFFF5
9FFFFB
7FFFFA
5F8AF8
3F6484
1F8DF6
0EB6F6
0AFFF3
027970
002000
00FFC0
01FFD0
01CEC0
0007B0
000A80
000100
ENDCHAR
STARTCHAR Hcircumflex
ENCODING 292
SWIDTH 726 0
DWIDTH 9 0
BBX 9 17 0 -3
BITMAP
0007730000
005FFB0000
00CDAF4000
04E31CB000
0230013000
36AA2CBA20
1FF90EFD00
0DF91FF700
0AF81FF300
08F82FE000
05FFFFB000
03FC9FA000
02FA6F6000
01FA7F4000
0141392000
0000100000
0000100000
ENDCHAR
STARTCHAR hcircumflex
ENCODING 293
SWIDTH 730 0
DWIDTH 9 0
BBX 9 15 0 -1
BITMAP
0007730000
005FFC0000
00BEAF5000
03E30BC000
0240014000
38BB1DDC30
0EFA0CFD00
0CFA0FF700
0AFA0FF400
07FA2FF100
04FFFFC000
02FC8FB000
01FB5F7000
00FA6F6000
0030273000
ENDCHAR
STARTCHAR hbar
ENCODING 295
SWIDTH 704 0
DWIDTH 8 0
BBX 8 10 0 -1
BITMAP
38CA4DCA
0EFA6FF8
0CFFFFF3
0AFEEFF0
07F85FA0
04FFFF70
02FC8F80
01FB5F70
00FA6F60
00302730
ENDCHAR
STARTCHAR Itilde
ENCODING 296
SWIDTH 401 0
DWIDTH 5 0
BBX 6 14 -1 -1
BITMAP
160391
7FDFFA
09C694
000000
08DDD4
01EFE0
009FE0
00AFC0
00AF90
008F90
006F70
004F70
002D60
000420
ENDCHAR
STARTCHAR itilde
ENCODING 297
SWIDTH 411 0
DWIDTH 5 0
BBX 6 14 -1 -1
BITMAP
060392
5FDFFC
09D795
000000
06CDC4
01DFF1
008FD0
009FA0
008F80
007F90
004F60
003F60
002E50
000210
ENDCHAR
STARTCHAR Imacron
ENCODING 298
SWIDTH 401 0
DWIDTH 5 0
BBX 5 12 0 -1
BITMAP
AEDD40
487720
8DDD40
1EFE00
09FE00
0AFC00
0AF900
08F900
06F700
04F700
02D600
004200
ENDCHAR
STARTCHAR imacron
ENCODING 299
SWIDTH 411 0
DWIDTH 5 0
BBX 5 12 0 -1
BITMAP
9EDD50
377720
6CDC40
1DFF10
08FD00
09FA00
08F800
07F900
04F600
03F600
02E500
002100
ENDCHAR
STARTCHAR Ibreve
ENCODING 300
SWIDTH 401 0
DWIDTH 5 0
BBX 5 15 0 -1
BITMAP
560230
6E3BC0
2DFF70
013810
000000
8DDD40
1EFE00
09FE00
0AFC00
0AF900
08F900
06F700
04F700
02D600
004200
ENDCHAR
STARTCHAR ibreve
ENCODING 301
SWIDTH 411 0
DWIDTH 5 0
BBX 5 15 0 -1
BITMAP
560230
7E2CC0
3DFF60
013810
000000
6CDC40
1DFF10
08FD00
09FA00
08F800
07F900
04F600
03F600
02E500
002100
ENDCHAR
STARTCHAR Iogonek
ENCODING 302
SWIDTH 401 0
DWIDTH 5 0
BBX 5 14 0 -5
BITMAP
8DDD40
1EFE00
09FE00
0AFC00
09F900
08F900
06F700
04F700
03F600
05E200
08A000
09B000
07FE60
007A30
ENDCHAR
STARTCHAR iogonek
ENCODING 303
SWIDTH 412 0
DWIDTH 5 0
BBX 5 14 0 -5
BITMAP
6CDC40
1DFF10
08FD00
09FA00
08F800
07F900
04F600
03F600
02F500
05E100
08A000
09D210
04FF70
003720
ENDCHAR
STARTCHAR Idotaccent
ENCODING 304
SWIDTH 401 0
DWIDTH 5 0
BBX 5 15 0 -1
BITMAP
146400
4FFC00
2FFD00
1FFD00
031100
8DDD40
1EFE00
09FE00
0AFC00
0AF900
08F900
06F700
04F700
02D600
004200
ENDCHAR
STARTCHAR dotlessi
ENCODING 305
SWIDTH 411 0
DWIDTH 5 0
BBX 5 10 0 -1
BITMAP
6CDC40
1DFF10
08FD00
09FA00
08F800
07F900
04F600
03F600
02E500
002100
ENDCHAR
STARTCHAR IJ
ENCODING 306
SWIDTH 908 0
DWIDTH 11 0
BBX 11 10 0 -1
BITMAP
8DDD6008BA30
1EFF2006FF10
09FF1004FB00
0AFE0005F900
09FC0006F700
08FC0005F500
06FA09B6F300
04FA0AD9F100
02D906EEA000
003300131000
ENDCHAR
STARTCHAR ij
ENCODING 307
SWIDTH 901 0
DWIDTH 11 0
BBX 11 10 0 -1
BITMAP
6CDC502CC920
1DFF300CFF10
08FF1008FC00
09FD0008FB00
08FB0008FA00
06FB0006F900
03F909B5F700
02F809F9F500
01E804EFF100
001200034000
ENDCHAR
STARTCHAR Jcircumflex
ENCODING 308
SWIDTH 455 0
DWIDTH 5 0
BBX 7 15 -1 -1
BITMAP
00067400
003FFD00
00AE9F60
02E40AD0
01400140
001BB900
000BFA00
000AF500
000BF300
000CF100
000BE000
2C5CC000
1F9EA000
0BDE5000
00131000
ENDCHAR
STARTCHAR jcircumflex
ENCODING 309
SWIDTH 458 0
DWIDTH 6 0
BBX 7 15 -1 -1
BITMAP
00067400
003FFD00
00AE9F60
01E40AD0
01400040
005DB700
001FFC00
000CF700
000CF700
000CF600
000AF400
2C7AF300
0ECCF100
08FFC000
00142000
ENDCHAR
STARTCHAR Kcommaaccent
ENCODING 310
SWIDTH 580 0
DWIDTH 7 0
BBX 7 17 0 -8
BITMAP
6CA3A940
1EF5FA00
09FAF100
06FFC000
05FFD000
02FFE000
00FFE000
00E7F300
00D5D600
00223200
00010000
008FF400
009FF400
008DF400
0001F200
0003F000
00001000
ENDCHAR
STARTCHAR kcommaaccent
ENCODING 311
SWIDTH 636 0
DWIDTH 8 0
BBX 8 16 0 -7
BITMAP
59B86DB1
1EF9BE30
08FAD700
03FBF500
02FEE000
01FFC000
00CFF200
00BAC800
00AA7D00
00232400
003FF900
003FFA00
003DEA00
0000A800
0000C600
00001000
ENDCHAR
STARTCHAR kgreenlandic
ENCODING 312
SWIDTH 636 0
DWIDTH 8 0
BBX 8 10 0 -1
BITMAP
59B86DB1
1EF9BE30
08FAD700
03FBF500
02FEE000
01FFC000
00CFF200
00BAC800
00AA7D00
00221400
ENDCHAR
STARTCHAR Lacute
ENCODING 313
SWIDTH 416 0
DWIDTH 5 0
BBX 7 13 0 -1
BITMAP
00007900
0019FE40
004A5100
7CCA1000
3FF50000
0FF50000
0FF30000
0CF30000
0BF40000
09F30000
08FC8300
05FEF200
00458000
ENDCHAR
STARTCHAR lacute
ENCODING 314
SWIDTH 438 0
DWIDTH 5 0
BBX 7 14 0 -1
BITMAP
00005C00
0007FF60
002A6200
00000000
4BCD6000
0EFB0000
0CFA0000
0BF90000
07F90000
05F80000
04F70000
02FD9500
00FEF400
00518100
ENDCHAR
STARTCHAR Lcommaaccent
ENCODING 315
SWIDTH 416 0
DWIDTH 5 0
BBX 6 17 0 -8
BITMAP
7CCA10
3FF500
0FF500
0FF300
0CF300
0BF400
09F300
08FC83
05FEF2
004580
001000
08FF30
09FF40
08DF40
001F20
003F00
000100
ENDCHAR
STARTCHAR lcommaaccent
ENCODING 316
SWIDTH 438 0
DWIDTH 5 0
BBX 6 17 0 -8
BITMAP
4BCD60
0EFB00
0CFA00
0BF900
07F900
05F800
04F700
02FD95
00FEF4
005181
001000
06FF60
06FF70
06DF60
000D50
001F20
000100
ENDCHAR
STARTCHAR Lcaron
ENCODING 317
SWIDTH 714 0
DWIDTH 9 0
BBX 9 11 0 -1
BITMAP
0000010000
7CCA1EFF10
3FF50FFF20
0FF50FFF10
0FF3068F10
0CF3004E00
0BF4004900
09F3000000
08FC830000
05FEF20000
0045800000
ENDCHAR
STARTCHAR lcaron
ENCODING 318
SWIDTH 782 0
DWIDTH 9 0
BBX 9 11 0 -1
BITMAP
0000001000
4BCD62FFD0
0EFB02FFE0
0CFA03FFE0
0BF9016AD0
07F90007B0
05F8000670
04F7000000
02FD950000
00FEF40000
0051810000
ENDCHAR
STARTCHAR Ldotaccent
ENCODING 319
SWIDTH 567 0
DWIDTH 7 0
BBX 8 10 0 -1
BITMAP
7CCA1000
3FF50010
0FF5BFF5
0FF3AFF5
0CF39FF5
0BF45762
09F30000
08FC8300
05FEF200
00458000
ENDCHAR
STARTCHAR ldot
ENCODING 320
SWIDTH 660 0
DWIDTH 8 0
BBX 9 10 0 -1
BITMAP
4BCD600000
0EFB000000
0CFA045610
0BF90DFF30
07F90BFF40
05F80AFF30
04F7032100
02FD950000
00FEF40000
0051810000
ENDCHAR
STARTCHAR Lslash
ENCODING 321
SWIDTH 428 0
DWIDTH 5 0
BBX 6 10 0 -1
BITMAP
5CCA10
0FF500
0CF551
0CFEF4
AFFFE6
8FF810
18F300
05FC83
03FEF2
004580
ENDCHAR
STARTCHAR lslash
ENCODING 322
SWIDTH 457 0
DWIDTH 5 0
BBX 6 10 0 -1
BITMAP
3BCD80
0DFC00
0BFC57
09FFFC
7FFFE9
6FFB10
16F900
01FEA6
00EEF6
005172
ENDCHAR
STARTCHAR Nacute
ENCODING 323
SWIDTH 610 0
DWIDTH 7 0
BBX 8 15 0 -2
BITMAP
000004D0
00006FF7
0001B620
00000000
5AB5BA60
1FF9AF50
0EFEAF20
0CFFEF00
0BFFFD00
08FFFB00
05FCFA00
04F7F900
03F4F700
0293A400
01222000
ENDCHAR
STARTCHAR nacute
ENCODING 324
SWIDTH 664 0
DWIDTH 8 0
BBX 9 14 0 -1
BITMAP
000001B400
00002DFC10
0000884000
0000000000
7CD94BB700
2FFE3FF200
0FFF8FC000
0EFFEFA000
0CFFFF8000
0AFFFF5000
07FBFF3000
06F6FF0000
05F3FB0000
0271B50000
ENDCHAR
STARTCHAR Ncommaaccent
ENCODING 325
SWIDTH 610 0
DWIDTH 7 0
BBX 7 18 0 -9
BITMAP
5AB5BA60
1FF9AF50
0EFEAF20
0CFFEF00
0BFFFD00
08FFFB00
05FCFA00
04F7F900
03F4F700
0293A400
01222000
00010000
003FF900
003FFA00
003DE900
0000A800
0000D600
00001000
ENDCHAR
STARTCHAR ncommaaccent
ENCODING 326
SWIDTH 664 0
DWIDTH 8 0
BBX 8 17 0 -8
BITMAP
7CD94BB7
2FFE3FF2
0FFF8FC0
0EFFEFA0
0CFFFF80
0AFFFF50
07FBFF30
06F6FF00
05F3FB00
0271B500
00011000
000DFE00
000EFE00
000CEE00
00005D00
00008A00
00001100
ENDCHAR
STARTCHAR Ncaron
ENCODING 327
SWIDTH 610 0
DWIDTH 7 0
BBX 7 16 0 -2
BITMAP
06500810
0AE27F50
03FBFC00
00BFF500
00367000
5AB5BA60
1FF9AF50
0EFEAF20
0CFFEF00
0BFFFD00
08FFFB00
05FCFA00
04F7F900
03F4F700
0293A400
01222000
ENDCHAR
STARTCHAR ncaron
ENCODING 328
SWIDTH 664 0
DWIDTH 8 0
BBX 8 15 0 -1
BITMAP
01910450
02F91EC0
00BFBF50
004FFC00
00067300
7CD94BB7
2FFE3FF2
0FFF8FC0
0EFFEFA0
0CFFFF80
0AFFFF50
07FBFF30
06F6FF00
05F3FB00
0271B500
ENDCHAR
STARTCHAR Omacron
ENCODING 332
SWIDTH 504 0
DWIDTH 6 0
BBX 6 12 0 -1
BITMAP
2EDDC0
167760
04BB60
4FFFF7
9FFFFB
8FFFFA
6F99FB
4F76FA
2F87F6
0ECAF3
0AFFC0
006830
ENDCHAR
STARTCHAR omacron
ENCODING 333
SWIDTH 545 0
DWIDTH 7 0
BBX 7 12 0 -1
BITMAP
0DEDD200
05877100
05BCA200
4FFFFD10
9FFFFF30
8FFFFF40
6FC5FF30
4FA3FF10
1FA4FC00
0DE8F700
08EFF300
00257000
ENDCHAR
STARTCHAR Obreve
ENCODING 334
SWIDTH 504 0
DWIDTH 6 0
BBX 6 15 0 -1
BITMAP
084032
0CA3F7
07EFF2
002560
000000
04BB60
4FFFF7
9FFFFB
8FFFFA
6F99FB
4F76FA
2F87F6
0ECAF3
0AFFC0
006830
ENDCHAR
STARTCHAR obreve
ENCODING 335
SWIDTH 545 0
DWIDTH 7 0
BBX 7 15 0 -1
BITMAP
07503200
0AB2E800
05EFF300
00257000
00000000
05BCA200
4FFFFD10
9FFFFF30
8FFFFF40
6FC5FF30
4FA3FF10
1FA4FC00
0DE8F700
08EFF300
00257000
ENDCHAR
STARTCHAR Ohungarumlaut
ENCODING 336
SWIDTH 504 0
DWIDTH 6 0
BBX 7 15 0 -1
BITMAP
02103000
0AD2EC10
1F95F500
7B0B6000
41040000
04BB6000
4FFFF700
9FFFFB00
8FFFFA00
6F99FB00
4F76FA00
2F87F600
0ECAF300
0AFFC000
00683000
ENDCHAR
STARTCHAR ohungarumlaut
ENCODING 337
SWIDTH 545 0
DWIDTH 7 0
BBX 7 15 0 -1
BITMAP
00303100
06F4BD40
0CC2F900
3D27A000
22031000
05BCA200
4FFFFD10
9FFFFF30
8FFFFF40
6FC5FF30
4FA3FF10
1FA4FC00
0DE8F700
08EFF300
00257000
ENDCHAR
STARTCHAR OE
ENCODING 338
SWIDTH 789 0
DWIDTH 9 0
BBX 9 11 0 -2
BITMAP
04BBCCCB80
4FFFFFFF90
9FFFFFFF40
8FFFFFFF00
6F99FC1400
4F76FFF500
2F87FEA300
0ECAFD8400
0AFFDDE600
0079562400
0013031100
ENDCHAR
STARTCHAR oe
ENCODING 339
SWIDTH 778 0
DWIDTH 9 0
BBX 9 10 0 -1
BITMAP
05CCBBBA60
4FFFFFFF60
AFFFFFFF10
8FFFFFFD00
5FA7FE4600
2F85FEA100
0E95FFF100
0CC9F93000
08EFFFF400
0026655200
ENDCHAR
STARTCHAR Racute
ENCODING 340
SWIDTH 599 0
DWIDTH 7 0
BBX 8 14 0 -1
BITMAP
000005B0
00008FF5
0002A620
00000000
59CDC810
2EFFFFB0
08FFFFE0
06FEDFD0
05FA3FC0
02FECF80
00EFFE20
00DB9F10
00BC8F20
00352820
ENDCHAR
STARTCHAR racute
ENCODING 341
SWIDTH 616 0
DWIDTH 7 0
BBX 8 14 0 -1
BITMAP
000004C0
00006FF7
0001B620
00000000
49BCB820
2EFFFFE1
08FFFFF1
06FFEFE0
04FB3FB0
03FEBF90
01FFFE30
01FBBC00
00FBAD00
00834B00
ENDCHAR
STARTCHAR Rcommaaccent
ENCODING 342
SWIDTH 599 0
DWIDTH 7 0
BBX 7 17 0 -8
BITMAP
59CDC810
2EFFFFB0
08FFFFE0
06FEDFD0
05FA3FC0
02FECF80
00EFFE20
00DB9F10
00BC8F20
00352820
00010000
007FF500
007FF600
007DF500
0000E400
0002F200
00001000
ENDCHAR
STARTCHAR rcommaaccent
ENCODING 343
SWIDTH 616 0
DWIDTH 7 0
BBX 8 17 0 -8
BITMAP
49BCB820
2EFFFFE1
08FFFFF1
06FFEFE0
04FB3FB0
03FEBF90
01FFFE30
01FBBC00
00FBAD00
00834B00
00010000
004FF800
005FF800
004DF800
0000C600
0000E400
00001000
ENDCHAR
STARTCHAR Rcaron
ENCODING 344
SWIDTH 599 0
DWIDTH 7 0
BBX 7 15 0 -1
BITMAP
03800730
06F53F90
00EDDF20
007FF900
00177100
59CDC810
2EFFFFB0
08FFFFE0
06FEDFD0
05FA3FC0
02FECF80
00EFFE20
00DB9F10
00BC8F20
00352820
ENDCHAR
STARTCHAR rcaron
ENCODING 345
SWIDTH 616 0
DWIDTH 7 0
BBX 8 15 0 -1
BITMAP
04700720
07F44F80
01ECDE10
008FF800
00277100
49BCB820
2EFFFFE1
08FFFFF1
06FFEFE0
04FB3FB0
03FEBF90
01FFFE30
01FBBC00
00FBAD00
00834B00
ENDCHAR
STARTCHAR Sacute
ENCODING 346
SWIDTH 504 0
DWIDTH 6 0
BBX 7 14 0 -1
BITMAP
00002D20
0004EFA0
000A7300
00000000
039C8000
2FFFFA00
8FFFFB00
AFFFFA00
9FC6B900
4FFD7000
049EF400
3DA9F400
0DFFC000
02553000
ENDCHAR
STARTCHAR sacute
ENCODING 347
SWIDTH 481 0
DWIDTH 6 0
BBX 7 14 0 -1
BITMAP
00003D10
0005EF90
000B7300
00000000
04BC6000
3FFFF600
8FFFF600
AFFFF500
9FA9E400
5FFB3100
06CFA000
1A7BC000
0DFF7000
04861000
ENDCHAR
STARTCHAR Scircumflex
ENCODING 348
SWIDTH 504 0
DWIDTH 6 0
BBX 6 15 0 -1
BITMAP
006740
03FFD0
0AE9F6
1E40AD
140004
039C80
2FFFFA
8FFFFB
AFFFFA
9FC6B9
4FFD70
049EF4
3DA9F4
0DFFC0
025530
ENDCHAR
STARTCHAR scircumflex
ENCODING 349
SWIDTH 481 0
DWIDTH 6 0
BBX 6 15 0 -1
BITMAP
007730
06FFB0
0CDAF4
4E21CB
230013
04BC60
3FFFF6
8FFFF6
AFFFF5
9FA9E4
5FFB31
06CFA0
1A7BC0
0DFF70
048610
ENDCHAR
STARTCHAR Scedilla
ENCODING 350
SWIDTH 504 0
DWIDTH 6 0
BBX 6 13 0 -4
BITMAP
039C80
2FFFFA
8FFFFB
AFFFFA
9FC6B9
4FFD70
049EF4
3DA9F4
0DFFC0
027F30
006B40
0017A0
005C90
ENDCHAR
STARTCHAR scedilla
ENCODING 351
SWIDTH 481 0
DWIDTH 6 0
BBX 6 13 0 -4
BITMAP
04BC60
3FFFF6
8FFFF6
AFFFF5
9FA9E4
5FFB31
06CFA0
1A7BC0
0DFF70
04FC10
00C720
003C40
00AE30
ENDCHAR
STARTCHAR Scaron
ENCODING 352
SWIDTH 503 0
DWIDTH 6 0
BBX 6 17 0 -1
BITMAP
010010
5E10B8
2F96F7
0BFED0
04FF60
001100
000000
039C80
2FFFF9
8FFFFB
AFFFFA
9FC6B8
4FFD60
04AEF4
3DA9F4
0DFFC0
025530
ENDCHAR
STARTCHAR scaron
ENCODING 353
SWIDTH 479 0
DWIDTH 6 0
BBX 6 16 0 -1
BITMAP
7B00C5
5F67F5
0DEFC0
07FF50
012300
000000
04BC60
3FFFF6
8FFFF6
AFFFF5
9FA9E3
5FFB31
06CFA0
1A6BC0
0DFF70
048610
ENDCHAR
STARTCHAR Tcommaaccent
ENCODING 354
SWIDTH 622 0
DWIDTH 7 0
BBX 7 14 0 -5
BITMAP
3ABCC970
2FFFFFA0
0DFFFF80
0BFFFF60
067FD530
000FE000
001FC000
000FB000
000DC000
000EA000
00097000
000C8200
0003B400
0009E400
ENDCHAR
STARTCHAR tcommaaccent
ENCODING 355
SWIDTH 683 0
DWIDTH 8 0
BBX 8 14 0 -5
BITMAP
49CDDDB6
3FFFFFF4
0CFFFFF1
0AFFFFF0
056CF760
0009F600
0009F600
0007F500
0005F500
0005F400
0001F200
0004C500
00016C00
0003CB00
ENDCHAR
STARTCHAR Tcaron
ENCODING 356
SWIDTH 622 0
DWIDTH 7 0
BBX 7 16 0 -2
BITMAP
06500810
0AE18F40
03FBFC00
00CFF400
00366000
3ABCC970
2FFFFFA0
0DFFFF80
0BFFFF60
067FD530
000FE000
001FC000
000FB000
000DC000
000EA000
00011000
ENDCHAR
STARTCHAR tcaron
ENCODING 357
SWIDTH 622 0
DWIDTH 7 0
BBX 7 16 0 -2
BITMAP
03700720
06F54F80
01EDDE10
008FF800
00177100
3ABCC970
2FFFFFA0
0DFFFF80
0BFFFF60
067FD530
000FE000
001FC000
000FB000
000DC000
000EA000
00011000
ENDCHAR
STARTCHAR Utilde
ENCODING 360
SWIDTH 637 0
DWIDTH 8 0
BBX 8 14 0 -1
BITMAP
04308500
0DEDFF30
03DA6910
00000000
5CD56A71
1FF59FC0
0EF69F80
0BF6AF50
0AF5BF10
09F4CF00
08F6DD00
05FCFB00
01DAC500
00213000
ENDCHAR
STARTCHAR utilde
ENCODING 361
SWIDTH 708 0
DWIDTH 9 0
BBX 9 13 0 0
BITMAP
0160491000
07FDFFA000
00AC693000
0000000000
4ACA098510
0EFB0FFD20
0BFD0EF900
08FE0EF400
06FD0FF100
04FD2FE000
02FF3FC000
00CFBF9000
006DAD4000
ENDCHAR
STARTCHAR Umacron
ENCODING 362
SWIDTH 637 0
DWIDTH 8 0
BBX 8 12 0 -1
BITMAP
03EDDC00
01677600
5CD56A71
1FF59FC0
0EF69F80
0BF6AF50
0AF5BF10
09F4CF00
08F6DD00
05FCFB00
01DAC500
00213000
ENDCHAR
STARTCHAR umacron
ENCODING 363
SWIDTH 708 0
DWIDTH 9 0
BBX 9 11 0 0
BITMAP
00BEDD4000
0048772000
4ACA098510
0EFB0FFD20
0BFD0EF900
08FE0EF400
06FD0FF100
04FD2FE000
02FF3FC000
00CFBF9000
006DAD4000
ENDCHAR
STARTCHAR Ubreve
ENCODING 364
SWIDTH 637 0
DWIDTH 8 0
BBX 8 15 0 -1
BITMAP
01830410
00D94F50
008EFE10
00026500
00000000
5CD56A71
1FF59FC0
0EF69F80
0BF6AF50
0AF5BF10
09F4CF00
08F6DD00
05FCFB00
01DAC500
00213000
ENDCHAR
STARTCHAR ubreve
ENCODING 365
SWIDTH 708 0
DWIDTH 9 0
BBX 9 14 0 0
BITMAP
0057023000
006E3BD000
002DFF7000
0001382000
0000000000
4ACA098510
0EFB0FFD20
0BFD0EF900
08FE0EF400
06FD0FF100
04FD2FE000
02FF3FC000
00CFBF9000
006DAD4000
ENDCHAR
STARTCHAR Uring
ENCODING 366
SWIDTH 637 0
DWIDTH 8 0
BBX 8 14 0 -1
BITMAP
003CC200
00978800
006BB300
00155000
5CD56A71
1FF59FC0
0EF69F80
0BF6AF50
0AF5BF10
09F4CF00
08F6DD00
05FCFB00
01DAC500
00213000
ENDCHAR
STARTCHAR uring
ENCODING 367
SWIDTH 708 0
DWIDTH 9 0
BBX 9 13 0 0
BITMAP
0007C80000
000E3D2000
000C8B0000
0002720000
4ACA098510
0EFB0FFD20
0BFD0EF900
08FE0EF400
06FD0FF100
04FD2FE000
02FF3FC000
00CFBF9000
006DAD4000
ENDCHAR
STARTCHAR Uhungarumlaut
ENCODING 368
SWIDTH 637 0
DWIDTH 8 0
BBX 8 15 0 -1
BITMAP
00210400
00AD2FB1
02F86F40
08A0C500
04004000
5CD56A71
1FF59FC0
0EF69F80
0BF6AF50
0AF5BF10
09F4CF00
08F6DD00
05FCFB00
01DAC500
00213000
ENDCHAR
STARTCHAR uhungarumlaut
ENCODING 369
SWIDTH 708 0
DWIDTH 9 0
BBX 9 14 0 0
BITMAP
0003021000
004F59E500
00AD2EA000
02E25B0000
0130310000
4ACA098510
0EFB0FFD20
0BFD0EF900
08FE0EF400
06FD0FF100
04FD2FE000
02FF3FC000
00CFBF9000
006DAD4000
ENDCHAR
STARTCHAR Uogonek
ENCODING 370
SWIDTH 637 0
DWIDTH 8 0
BBX 8 14 0 -5
BITMAP
5CD56A71
1FF59FC0
0EF69F80
0BF6AF50
0AF5BF10
09F4CF00
08F6DD00
05FCFB00
01DBD500
0026F000
0008B000
0007F740
0001BF80
00000100
ENDCHAR
STARTCHAR uogonek
ENCODING 371
SWIDTH 662 0
DWIDTH 8 0
BBX 9 13 0 -4
BITMAP
4ACA0A8510
0FFB1FFD20
0CFD0EF800
09FE0FF300
06FD1FF000
05FC2FE000
03FE3FB000
00DFCF8000
007FFD3000
000B800000
000AE73000
0003DF5000
0000010000
ENDCHAR
STARTCHAR Wcircumflex
ENCODING 372
SWIDTH 777 0
DWIDTH 9 0
BBX 10 14 0 0
BITMAP
0005760000
001EFF2000
006F9FA000
00D707F200
0050105000
26A3C57B71
4EF6F8CF60
05FBFDFB00
02FEFFF400
00AFFFF000
005FFFD000
002FCFA000
000D8F5000
00076E1000
ENDCHAR
STARTCHAR wcircumflex
ENCODING 373
SWIDTH 704 0
DWIDTH 8 0
BBX 9 14 0 0
BITMAP
0007730000
004FFC0000
00BEAF5000
03E30BC000
0140014000
4892B29610
2DF6F5FB00
07FBFCF400
04FFFFD000
00CFFFA000
008FFF8000
004FCF7000
000E9F5000
00084E3000
ENDCHAR
STARTCHAR Ycircumflex
ENCODING 374
SWIDTH 688 0
DWIDTH 8 0
BBX 9 15 0 -1
BITMAP
0007730000
006FFB0000
00CDBF3000
04E21CB000
0230023000
4BC70B8510
04FF4FF810
006FEF8000
000DFF1000
0007FE0000
0002FD0000
0000EC0000
0000CB0000
0000BA0000
0000420000
ENDCHAR
STARTCHAR ycircumflex
ENCODING 375
SWIDTH 604 0
DWIDTH 7 0
BBX 7 15 0 -1
BITMAP
00576000
01EFF200
06F9F900
0D707F20
05000500
3BC18840
06F7DF40
00CEF600
007FF100
003FE000
000ED000
000CC000
000DC000
000DA000
00073000
ENDCHAR
STARTCHAR Ydieresis
ENCODING 376
SWIDTH 688 0
DWIDTH 8 0
BBX 9 14 0 -1
BITMAP
0353168100
09FB4FF200
09FB4FF300
0354154100
4BC70B8510
04FF4FF810
006FEF8000
000DFF1000
0007FE0000
0002FD0000
0000EC0000
0000CB0000
0000BA0000
0000420000
ENDCHAR
STARTCHAR Zacute
ENCODING 377
SWIDTH 695 0
DWIDTH 8 0
BBX 9 14 0 -1
BITMAP
0000007900
000019FE30
00004A5100
0000000000
4ADDDC8510
4FFFFFFB00
0CFFFFF300
08FFFFB000
0557FC2000
000DE20000
003F600000
009FA60000
00EEF70000
0011310000
ENDCHAR
STARTCHAR zacute
ENCODING 378
SWIDTH 622 0
DWIDTH 7 0
BBX 8 14 0 -1
BITMAP
000003D0
00005EF8
0000B720
00000000
4BDDDB80
3FFFFFB0
0BFFFF50
07FFFF20
0479F600
000DB000
002F4000
007E8400
00BFF600
00324300
ENDCHAR
STARTCHAR Zdotaccent
ENCODING 379
SWIDTH 695 0
DWIDTH 8 0
BBX 9 15 0 -1
BITMAP
0014650000
003FFD0000
001FFE0000
000FFD0000
0003110000
4ADDDC8510
4FFFFFFB00
0CFFFFF300
08FFFFB000
0557FC2000
000DE20000
003F600000
009FA60000
00EEF70000
0011310000
ENDCHAR
STARTCHAR zdotaccent
ENCODING 380
SWIDTH 622 0
DWIDTH 7 0
BBX 7 15 0 -1
BITMAP
00456100
00DFF300
00BFF400
00AFF300
00221000
4BDDDB80
3FFFFFB0
0BFFFF50
07FFFF20
0479F600
000DB000
002F4000
007E8400
00BFF600
00324300
ENDCHAR
STARTCHAR Zcaron
ENCODING 381
SWIDTH 693 0
DWIDTH 8 0
BBX 9 17 0 -1
BITMAP
0010000000
01E408A000
00CD3F8000
006FEF2000
001EF90000
0001010000
0000000000
4ADDDC8510
4FFFFFFB00
0CFFFFF300
08FFFFB000
0557FC2000
000DE20000
003F600000
009FA60000
00DEF70000
0011310000
ENDCHAR
STARTCHAR zcaron
ENCODING 382
SWIDTH 621 0
DWIDTH 7 0
BBX 7 17 0 -1
BITMAP
00100100
0AA03E30
06F5CE10
01EEF800
009FE100
00000000
00000000
4BDDDB80
3FFFFFB0
0BFFFF50
07FFFF20
0469F600
000EB000
003F4000
007E8400
00BFF600
00324300
ENDCHAR
STARTCHAR DZ
ENCODING 497
SWIDTH 194 0
DWIDTH 2 0
BBX 1 1 0 0
BITMAP
00
ENDCHAR
STARTCHAR Dz
ENCODING 498
SWIDTH 194 0
DWIDTH 2 0
BBX 1 1 0 0
BITMAP
00
ENDCHAR
STARTCHAR dotlessj
ENCODING 567
SWIDTH 458 0
DWIDTH 6 0
BBX 6 10 -1 -1
BITMAP
005DB7
001FFC
000CF7
000CF7
000CF6
000AF4
2C7AF3
0ECCF1
08FFC0
001420
ENDCHAR
STARTCHAR circumflex
ENCODING 710
SWIDTH 528 0
DWIDTH 6 0
BBX 6 5 0 8
BITMAP
007730
06FFB0
0CDBF3
4E21CB
230023
ENDCHAR
STARTCHAR caron
ENCODING 711
SWIDTH 486 0
DWIDTH 6 0
BBX 6 5 0 8
BITMAP
460082
8F35F7
1FCEE1
09FF60
026700
ENDCHAR
STARTCHAR breve
ENCODING 728
SWIDTH 464 0
DWIDTH 6 0
BBX 5 4 0 -1
BITMAP
480230
4F49E0
1CFF90
002830
ENDCHAR
STARTCHAR dotaccent
ENCODING 729
SWIDTH 388 0
DWIDTH 5 0
BBX 4 5 0 2
BITMAP
1465
3FFD
1FFE
1FFD
0411
ENDCHAR
STARTCHAR ring
ENCODING 730
SWIDTH 370 0
DWIDTH 4 0
BBX 4 4 0 3
BITMAP
1AC4
5A5C
2C97
0460
ENDCHAR
STARTCHAR ogonek
ENCODING 731
SWIDTH 360 0
DWIDTH 4 0
BBX 4 5 0 0
BITMAP
0100
2F10
5E00
4F95
0AFB
ENDCHAR
STARTCHAR tilde
ENCODING 732
SWIDTH 535 0
DWIDTH 6 0
BBX 6 3 0 -1
BITMAP
060392
5FDFFC
09D795
ENDCHAR
STARTCHAR hungarumlaut
ENCODING 733
SWIDTH 554 0
DWIDTH 7 0
BBX 7 5 0 8
BITMAP
01203100
07E3CD30
0DC3F800
5D189000
22040000
ENDCHAR
STARTCHAR dotaccentcmb
ENCODING 775
SWIDTH 396 0
DWIDTH 5 0
BBX 4 5 0 4
BITMAP
0132
3FFE
1FFE
0FFE
0644
ENDCHAR
STARTCHAR uni030F
ENCODING 783
SWIDTH 549 0
DWIDTH 7 0
BBX 6 5 0 8
BITMAP
031040
7E68F1
1DB4F7
02D25D
003104
ENDCHAR
STARTCHAR uni0311
ENCODING 785
SWIDTH 490 0
DWIDTH 6 0
BBX 6 4 0 4
BITMAP
026610
0DFFA0
2F68F1
381151
ENDCHAR
STARTCHAR uni0326
ENCODING 806
SWIDTH 360 0
DWIDTH 4 0
BBX 4 7 0 -2
BITMAP
0100
2FF9
3FFA
3DEA
00A8
00C6
0010
ENDCHAR
STARTCHAR endash
ENCODING 8211
SWIDTH 478 0
DWIDTH 6 0
BBX 5 3 0 3
BITMAP
3CBBB0
5FFFC0
267760
ENDCHAR
STARTCHAR emdash
ENCODING 8212
SWIDTH 567 0
DWIDTH 7 0
BBX 7 3 0 3
BITMAP
3CBBBB10
5FFFFD00
26767600
ENDCHAR
STARTCHAR quoteleft
ENCODING 8216
SWIDTH 373 0
DWIDTH 4 0
BBX 4 6 0 3
BITMAP
0C20
2F10
4F86
4FFD
5FFC
4EFB
ENDCHAR
STARTCHAR quoteright
ENCODING 8217
SWIDTH 369 0
DWIDTH 4 0
BBX 4 6 0 3
BITMAP
4CA7
6FFA
6FFA
5BEA
00A8
00C6
ENDCHAR
STARTCHAR quotesinglbase
ENCODING 8218
SWIDTH 369 0
DWIDTH 4 0
BBX 4 6 0 3
BITMAP
4CA7
6FFA
6FFA
5BEA
00A8
00C6
ENDCHAR
STARTCHAR quotedblleft
ENCODING 8220
SWIDTH 687 0
DWIDTH 8 0
BBX 8 6 0 3
BITMAP
0C203C00
2F105D00
4F867D74
4FFD8FF9
5FFC8FF8
4EFB7EF8
ENDCHAR
STARTCHAR quotedblright
ENCODING 8221
SWIDTH 677 0
DWIDTH 8 0
BBX 8 6 0 3
BITMAP
4CC56BA3
6FF88FF6
7FF89FF6
5CE76BF5
00B600E4
00D402F1
ENDCHAR
STARTCHAR quotedblbase
ENCODING 8222
SWIDTH 697 0
DWIDTH 8 0
BBX 8 7 0 -4
BITMAP
13111311
5FFA5FFB
6FFB5FFB
7FFA6FFB
25BA25BB
00B800A8
00830074
ENDCHAR
STARTCHAR ellipsis
ENCODING 8230
SWIDTH 1462 0
DWIDTH 18 0
BBX 17 5 0 0
BITMAP
013100002300001320
5FF9000AFF3001FFD0
2FFA0008FF3000EFE0
1FFA0007FF3000DFE0
064300035410005440
ENDCHAR
STARTCHAR guilsinglleft
ENCODING 8249
SWIDTH 459 0
DWIDTH 6 0
BBX 6 8 0 0
BITMAP
015550
03FF90
0CFD00
8FF300
4FF500
08FD10
00AFD1
000120
ENDCHAR
STARTCHAR guilsinglright
ENCODING 8250
SWIDTH 432 0
DWIDTH 5 0
BBX 5 7 0 1
BITMAP
366200
3FF700
06FE20
00CFB0
01EF80
0AFB00
7FE200
ENDCHAR
STARTCHAR fraction
ENCODING 8260
SWIDTH 371 0
DWIDTH 4 0
BBX 5 10 0 -1
BITMAP
8DDB20
2EFD00
0BFA00
0CF700
0CF500
0AF500
07F300
06F200
05E100
002000
ENDCHAR
STARTCHAR Euro
ENCODING 8364
SWIDTH 587 0
DWIDTH 7 0
BBX 7 12 0 -3
BITMAP
007CD700
07FFFF50
0BFFFF70
0AFFFF70
19FAAF70
7CFA2520
7CFC4400
02F9CE00
00CFF800
00178000
00061000
00011000
ENDCHAR
STARTCHAR trademark
ENCODING 8482
SWIDTH 785 0
DWIDTH 9 0
BBX 9 7 0 3
BITMAP
0000001100
8DDB4E7FB0
6FFC1FEF90
4BE70EFF80
04D00CDD70
03C00ABB60
03B0032220
ENDCHAR
STARTCHAR minus
ENCODING 8722
SWIDTH 478 0
DWIDTH 6 0
BBX 5 3 0 3
BITMAP
3CBBB0
5FFFC0
267760
ENDCHAR
STARTCHAR commaaccent
ENCODING 63171
SWIDTH 360 0
DWIDTH 4 0
BBX 4 7 0 -2
BITMAP
0100
5FFA
6FFB
6FFA
36CA
00B8
0094
ENDCHAR
STARTCHAR .notdef
ENCODING -1
SWIDTH 365 0
DWIDTH 4 0
BBX 4 8 0 0
BITMAP
7667
6006
6006
6006
6006
6006
6006
7667
ENDCHAR
STARTCHAR .null
ENCODING -1
SWIDTH 0 0
DWIDTH 0 0
BBX 1 1 0 0
BITMAP
00
ENDCHAR
STARTCHAR nonmarkingreturn
ENCODING -1
SWIDTH 333 0
DWIDTH 4 0
BBX 1 1 0 0
BITMAP
00
ENDCHAR
ENDFONT
